<svg id="Capa_1" data-name="Capa 1" xmlns="http://www.w3.org/2000/svg" width="35.69" height="24" viewBox="0 0 35.69 24"><defs><style>.cls-1{fill:#7e7e7e;}</style></defs><title>Social-Icon</title><path class="cls-1" d="M27.76,6.42c-8.36,0-8.37,8.32-8.37,8.37s-.57,8.33,8.37,8.33c0,0,7.45.42,7.45-5.8H31.39s.13,2.34-3.5,2.34a3.54,3.54,0,0,1-3.83-3.79H35.35S36.59,6.42,27.76,6.42ZM24,13a3.89,3.89,0,0,1,3.83-3.35A3.23,3.23,0,0,1,31.17,13Zm-9.56-2.14s3.32-.24,3.32-4.15S15.06.87,11.62.87H.28V22.66H11.62s6.92.21,6.92-6.44C18.54,16.23,18.84,10.82,14.46,10.82ZM5.28,4.74h6.34s1.54,0,1.54,2.27-.9,2.6-1.93,2.6H5.28Zm6,14h-6V13h6.34s2.3,0,2.29,3C13.91,18.51,12.2,18.77,11.3,18.79ZM23.08,2.16V4.84h9V2.16Z"/></svg>