<svg id="Layer_1" data-name="Layer 1" xmlns="http://www.w3.org/2000/svg" width="84" height="78" viewBox="0 0 84 78"><defs><style>.cls-1{fill:none;stroke-width:0.46px;}.cls-1,.cls-3{stroke:#606060;stroke-miterlimit:10;}.cls-2{fill:#f0b013;}.cls-3{fill:#606060;stroke-width:0.53px;}</style></defs><title>About-02</title><path class="cls-1" d="M64.4,11.6a10.63,10.63,0,0,1-1.1-.9l-.3-.3-1.1-.8-.5-.3-1.5-.9c-.4-.2-.7-.4-1.1-.6l-.2-.1a8.93,8.93,0,0,0-2.9,2.2h0c-2.2,2.8-2.2,3.7-2.2,3.9a4,4,0,0,0,2.6,1.8,10.55,10.55,0,0,0,2.5-.2,16.28,16.28,0,0,1,3.1-.3,3.18,3.18,0,0,0,2.5-1.5,2.37,2.37,0,0,1,1.3-1.1l-.8-.7Z"/><path class="cls-1" d="M77.4,37.1a3.08,3.08,0,0,0-.1-.9c-.1-.3,0-.6-.1-1a4.48,4.48,0,0,1-.1-1.1c0-.2-.1-.5-.1-.7-.1-.4-.1-.8-.2-1.2a1.7,1.7,0,0,1-.1-.7l-.3-1.2-.2-.6c-.1-.4-.2-.8-.3-1.1l-.2-.6c-.1-.3-.2-.7-.3-1.1l-.4-.8a6.89,6.89,0,0,0-.3-.8c-.2-.6-.5-1.1-.7-1.7h-.3a24.1,24.1,0,0,1-3.8,0c-5-.5-7.7-.3-8.5.1l-1.1.5c-2.9,1.2-3.5,1.7-3.1,3a2.08,2.08,0,0,0,1.4,1.6,3.58,3.58,0,0,1,2.3,3c.3,3.5,1.7,3.5,2.4,3.5a5.09,5.09,0,0,1,4,1.7,4.43,4.43,0,0,1,1.1,3.3,7,7,0,0,0,1.4.3c1.4.3,2.7.6,3.2,1.8a2.24,2.24,0,0,1-.7,2.2,12.06,12.06,0,0,1-2.4,2.1c-1.6,1.2-2.5,2-2.5,3,0,3.8-.1,6.7-.7,8a3.19,3.19,0,0,0,2.1,2.4,12.1,12.1,0,0,0,1.9.1,35.76,35.76,0,0,0,6.9-17.4v-.3a5.7,5.7,0,0,0,.1-1.3V39.1C77.7,38.5,77.4,37.8,77.4,37.1Z"/><path class="cls-2" d="M69.6,56.6c.2-2.1.3-4.3.3-6.4.5-.4.9-.8,1.4-1.2a16.38,16.38,0,0,0,2.5-2.1A33.57,33.57,0,0,1,69.6,56.6Zm5.1-16.3a6.68,6.68,0,0,0-3.9-2.2,9.2,9.2,0,0,0-1.4-2.8l-.1-.1a7.8,7.8,0,0,0-5.6-2.6,2.77,2.77,0,0,1-.1-.9A6.08,6.08,0,0,0,60.9,27l1.5-.6a19.52,19.52,0,0,1,2.3-.2,45.52,45.52,0,0,1,4.8.3,15.48,15.48,0,0,0,2.2.1h.4l.6,1.5a9.44,9.44,0,0,1,.3.9l.2.7c.1.3.2.7.3,1.1l.2.6c.1.3.1.5.2.8s.1.5.1.8.1.6.2,1a2,2,0,0,0,.1.7v.1a.6.6,0,0,0,.1.4c.1.1.1.4.1.6a1.27,1.27,0,0,0,.1.6v2.9A2.79,2.79,0,0,1,74.7,40.3Z"/><path class="cls-2" d="M33.1,56a9,9,0,0,0-.7-2.7,13.43,13.43,0,0,1-.7-2.7,19.44,19.44,0,0,0-1.9-5.9l-.1-.1-.1-.1A12.21,12.21,0,0,0,26,41.3l-.2-.3c-.5-.4-1.1-.8-1.5-1.2a15.19,15.19,0,0,0-1.8-8.1A12.89,12.89,0,0,0,28,32.8c1.1,0,1.9-.1,2.7-.1l.9-.1a5,5,0,0,1,.2,1.2v.3c.1,1.3.3,5.1,4,5.5H36a8.68,8.68,0,0,0,4.2-1,8.78,8.78,0,0,1,2.3-.7,5.72,5.72,0,0,1,2.7,2.4c-.1.4-.1.8-.2,1.1-.2,1.9-.4,2-1.1,2.2-5.1,1.7-6.1,4.9-6.3,7.9a3.7,3.7,0,0,1-2.2,2.8h-.1A8.68,8.68,0,0,0,33.1,56ZM17.9,27.5c-2.3-1.6-4-3.3-4-6.3a3.75,3.75,0,0,1,.1-1l.3-.4a5.5,5.5,0,0,1,.7-.9l.3-.4c.2-.3.4-.5.6-.8l.5-.6.7-.8.4-.4.7-.7.5-.5.7-.6.6-.5.6-.5.7-.6.5-.4.9-.7.4-.3,1-.6.3-.2,1.1-.7.3-.2.7-.4.2-.1L28,8.3l.2-.1a5,5,0,0,1,1.3-.5l.2-.1L31,7.1l.8-.3a10.64,10.64,0,0,0,1.3,5.5v.1l.4.5a9.19,9.19,0,0,1,1.6,2.7,5.5,5.5,0,0,1-.9.7,4.87,4.87,0,0,1-1.1-.4H33a6.11,6.11,0,0,0-3-.8,3.56,3.56,0,0,0-3,1.5l-.1.1-.1.1a6.41,6.41,0,0,0-.8,3l-.7-.1h-.1l-3-.3c-3.6,0-4.8,1.8-5.3,3.2a7.72,7.72,0,0,0-.2,1.5,6.32,6.32,0,0,0,1.2,3.4Z"/><path class="cls-3" d="M80.1,36.9A2.77,2.77,0,0,0,80,36a4.48,4.48,0,0,1-.1-1.2,4.1,4.1,0,0,1-.1-1.1c0-.4-.1-.6-.1-.9a6,6,0,0,0-.2-1.2,4.54,4.54,0,0,0-.2-.8c-.1-.2-.2-.8-.3-1.1s-.1-.5-.2-.8a9.83,9.83,0,0,0-.5-1.6c-.2-.5-.3-.9-.5-1.4-.1-.3-.2-.5-.3-.8a10.41,10.41,0,0,0-.5-1.2l-.3-.8-.5-1.2c-.1-.1-.1-.3-.2-.4v-.1a38.1,38.1,0,0,0-6.7-9.2l-.1-.1-.6-.6-1.1-1.1-.9-.8a10.92,10.92,0,0,0-1.7-1.3L64,7.7c-.5-.4-1.1-.7-1.6-1.1l-.6-.3a15.45,15.45,0,0,0-2.2-1.2l-.3-.2h-.1A39.44,39.44,0,0,0,51.5,2l-.3-.1-.3-.1c-.6-.1-1.2-.3-1.8-.4l-.5-.1L46.9,1H44.1c-.7,0-1.5-.1-2.2-.1h-.6a33.6,33.6,0,0,0-6.3.6h0a10.46,10.46,0,0,0-1.7.4l-.2.1a10.93,10.93,0,0,0-1.7.5h-.2l-1.8.6h-.1A36.77,36.77,0,0,0,17.6,9.8l-.4.2c-.3.3-.7.6-1,.9a4.62,4.62,0,0,0-.7.7l-.6.6a6,6,0,0,1-.8.8l-.5.5c-.3.3-.5.6-.8.9l-.4.5c-.3.3-.5.7-.8,1l-.4.5-.7,1-.4.6-.3.5-.1.1A38.36,38.36,0,0,0,7.4,54.9,37.29,37.29,0,0,0,19.2,69.5c.9.6,1.7,1.3,2.6,1.8a38.18,38.18,0,0,0,50.3-8.7l.1-.1.4-.5h0c.4-.5.7-1,1.1-1.5a37,37,0,0,0,6.1-15.6v-.1c.1-.5.1-1.1.2-1.6v-.4c0-.5.1-.9.1-1.4V39.1A16.15,16.15,0,0,0,80.1,36.9ZM55.7,9.9a8.93,8.93,0,0,1,2.9-2.2l.2.1c.4.2.7.4,1.1.6a11.91,11.91,0,0,1,1.5.9l.5.3,1.1.8.3.3a10.63,10.63,0,0,1,1.1.9l.2.2.8.7a2.07,2.07,0,0,0-1.3,1.1,3.18,3.18,0,0,1-2.5,1.5,16.28,16.28,0,0,0-3.1.3,6.88,6.88,0,0,1-2.5.2,3.85,3.85,0,0,1-2.6-1.9c.1-.2.1-1,2.3-3.8ZM42.5,3.5H44l.9.1c1.2.1,2.3.3,3.5.5l.4.1A30,30,0,0,1,45,8.4c-.4.4-.7.3-.7.3a3.69,3.69,0,0,1-2-1.7C42.2,6.8,42,5.8,42.5,3.5ZM12.2,19.7l.2-.3.3-.4c.2-.3.5-.7.7-1l.3-.4c.3-.3.5-.6.8-.9l.3-.4c.3-.3.5-.6.8-.9L16,15l.7-.8.5-.5.7-.6.6-.6.6-.5.8-.6.5-.4.9-.7.4-.3,1.1-.7.3-.3,1.2-.7.3-.1,1.2-.7.2-.1c.4-.2.9-.4,1.3-.6l.2-.1c.4-.2.9-.4,1.4-.6l.1-.2,1.4-.5.2-.1A7.37,7.37,0,0,1,32,4.9l.2-.1c.5-.1.9-.3,1.4-.4h.1c-.1.5-.6,5,1.2,7.3h0c1.6,2,2.3,4.1,2,4.5A4,4,0,0,1,34,18.1a5.46,5.46,0,0,1-1.8-.6c-1.1-.5-2.7-1.2-3.7.1a4.28,4.28,0,0,0-.6,2.2,3.66,3.66,0,0,1-.4,1.8,10.55,10.55,0,0,1-2.5-.2c-2.5-.3-5.6-.7-6.2,1.7s1.2,4.2,2.1,5.1l.3.3c.9,1.1,3.2,2.4,6.7,2.4,1,0,1.8-.1,2.5-.1,1.8-.1,2-.1,2.6.6a5.75,5.75,0,0,1,.5,2.6c.1,1.3.2,3.6,2.4,3.8a8.53,8.53,0,0,0,3.5-.8c1.3-.5,2.8-1.1,3.7-.7,2.2,1,4,3,3.8,4.2-.1.4-.1.8-.2,1.2-.2,2-.5,3.2-2.3,3.7-3.9,1.3-4.8,3.4-5.1,6.3A5.61,5.61,0,0,1,36,56c-2.7,1.4-2.9,3.3-3.2,5.4v.4a8.83,8.83,0,0,0,.2,2.8,2.2,2.2,0,0,1,.1.8,2.28,2.28,0,0,1-1.1-.3,1.78,1.78,0,0,1-.7-.8c-.1-1.1-.1-2.3-.1-3.4,0-3.3,0-5.5-.6-6.8a10.89,10.89,0,0,1-.8-3.1,20,20,0,0,0-1.7-5.4,9.68,9.68,0,0,0-3.2-2.8c-1.3-.9-2.6-1.8-2.6-2.7,0-2.9,0-7.3-3.9-9.9C15.2,28.1,12,26,12,21.3,12.1,20.7,12.1,20.2,12.2,19.7ZM42,74.5A35.56,35.56,0,0,1,9.7,24.2c1.1,4.1,4.5,6.4,7.3,8.3,2.6,1.8,2.6,5,2.6,7.5,0,2.3,2.1,3.7,3.8,5a8.65,8.65,0,0,1,2.3,1.9,18.79,18.79,0,0,1,1.4,4.6,12.74,12.74,0,0,0,1.1,3.8c.4.7.3,3.8.3,5.4a25.41,25.41,0,0,0,.1,3.9A4.71,4.71,0,0,0,33.1,68a2.39,2.39,0,0,0,2.3-1.1,3.6,3.6,0,0,0,.4-3.2,5.46,5.46,0,0,1-.1-1.8v-.4c.2-1.9.3-2.5,1.7-3.2a8.1,8.1,0,0,0,4.8-6.6c.2-2,.5-3,3.2-3.9,3.5-1.2,3.9-3.9,4.2-6,.1-.3.1-.7.2-1.1.6-2.9-2.3-5.9-5.3-7.3-2-.9-4.1,0-5.9.6a6.64,6.64,0,0,1-2,.6,4.87,4.87,0,0,1-.1-1.2,6.79,6.79,0,0,0-1.1-3.9c-1.5-2.1-3.2-1.9-5-1.8a15.52,15.52,0,0,1-2.3.1,7,7,0,0,1-4.6-1.3c-.2-.2-.3-.4-.5-.5-.5-.5-1.5-1.4-1.4-2.2a12.22,12.22,0,0,1,3.3.2,11.48,11.48,0,0,0,3.7,0c1.9-.6,2.1-2.8,2.3-4.2v-.2l.3.1a7.5,7.5,0,0,0,3,.9,6.46,6.46,0,0,0,5.2-3c1.9-2.8-1.7-7.4-2.1-7.9-.8-.9-.8-3.5-.6-5,.1-.3.1-.7.2-1.1,1.1-.1,2-.3,3-.3-.6,3.5.1,4.6.4,4.9,1.2,1.7,2.4,2.7,3.8,2.9h.4a4,4,0,0,0,2.5-1,26.82,26.82,0,0,0,4.7-5.4l.2-.3c1.4.4,2.7.9,4,1.4a8.33,8.33,0,0,0-2.2,2,21.37,21.37,0,0,0-2,3.2,4.09,4.09,0,0,0-.6,3.4A6.8,6.8,0,0,0,55.9,18c.3,0,.5.1.8.1a10.68,10.68,0,0,0,2.5-.3,11.53,11.53,0,0,1,2.6-.3,6,6,0,0,0,4.9-2.9,5.64,5.64,0,0,1,1.2-.4,37.4,37.4,0,0,1,4.8,6.3,8.84,8.84,0,0,1-2.3,0q-7.5-.75-9.9.3l-1.1.4c-2.3.9-5.8,2.3-4.7,6.3a4.82,4.82,0,0,0,2.8,3.4c.6.3.7.3.7.8.4,5,3,6,5.2,6a2,2,0,0,1,1.8.7,1.63,1.63,0,0,1,.3,1.5c-.4,2.2,2.2,2.8,3.6,3.1l.4.1c-.5.4-.9.8-1.4,1.2-1.7,1.3-3.6,2.8-3.6,5.1,0,1.6,0,5.9-.4,6.8a3.5,3.5,0,0,0,.2,3A5.79,5.79,0,0,0,68,62.5l.4.1A35.26,35.26,0,0,1,42,74.5ZM77.5,40.7v.4a5.7,5.7,0,0,1-.1,1.3v.3a36.11,36.11,0,0,1-6.9,17.5,12.1,12.1,0,0,1-1.9-.1,3.19,3.19,0,0,1-2.1-2.4c.6-1.3.7-4.2.7-8,0-.9.9-1.7,2.5-3a12.06,12.06,0,0,0,2.4-2.1,2.24,2.24,0,0,0,.7-2.2c-.4-1.3-1.8-1.6-3.2-1.8l-1.4-.3A4.43,4.43,0,0,0,67.1,37a5.09,5.09,0,0,0-4-1.7c-.7,0-2.1,0-2.4-3.5a3.34,3.34,0,0,0-2.3-3A2.48,2.48,0,0,1,57,27.2c-.3-1.3.2-1.8,3.1-3l1.1-.5c.8-.4,3.5-.6,8.5-.1a24.1,24.1,0,0,0,3.8,0h.3a8.65,8.65,0,0,1,.7,1.7,6.89,6.89,0,0,0,.3.8l.3.9c.1.3.2.7.3,1.1l.2.7c.1.4.2.7.3,1.1l.2.6.3,1.2c0,.2.1.4.1.6.1.4.1.8.2,1.2,0,.2.1.5.1.7s.1.7.1,1.1.1.7.1,1,.1.6.1.9c0,.6.1,1.3.1,1.9v1.7Z"/><path class="cls-2" d="M59,9.6l-3,3.2a.65.65,0,0,0,.5,1.1,20.92,20.92,0,0,0,5.6-.6c.3-.1.4-.3.2-.5Z"/></svg>