<svg id="Capa_1" data-name="Capa 1" xmlns="http://www.w3.org/2000/svg" width="24" height="24" viewBox="0 0 24 24"><defs><style>.cls-1{fill:#7e7e7e;}.cls-2{fill:#fff;}</style></defs><title>Social-Icon-07</title><path class="cls-1" d="M17.25,23.79H6.75A6.54,6.54,0,0,1,.21,17.25V6.75A6.54,6.54,0,0,1,6.75.21H17.25a6.54,6.54,0,0,1,6.55,6.55V17.25a6.54,6.54,0,0,1-6.55,6.55"/><path class="cls-2" d="M18.1,6.71a.81.81,0,1,0-.81.81.82.82,0,0,0,.81-.81"/><path class="cls-2" d="M12,15.66A3.75,3.75,0,0,1,8.34,12,3.75,3.75,0,0,1,12,8.34,3.75,3.75,0,0,1,15.66,12,3.75,3.75,0,0,1,12,15.66m0-8.95A5.29,5.29,0,1,0,17.29,12,5.28,5.28,0,0,0,12,6.71"/><path class="cls-2" d="M19.73,17.45a2.27,2.27,0,0,1-2.28,2.28H6.55a2.27,2.27,0,0,1-2.28-2.28V6.55A2.27,2.27,0,0,1,6.55,4.27h10.9a2.27,2.27,0,0,1,2.28,2.28ZM17.29,2.65H6.71A4.08,4.08,0,0,0,2.65,6.71V17.29a4.08,4.08,0,0,0,4.07,4.07H17.29a4.08,4.08,0,0,0,4.07-4.07V6.71a4.08,4.08,0,0,0-4.07-4.07Z"/></svg>