<svg id="Capa_1" data-name="Capa 1" xmlns="http://www.w3.org/2000/svg" xmlns:xlink="http://www.w3.org/1999/xlink" width="24" height="24" viewBox="0 0 24 24"><defs><style>.cls-1{fill:url(#linear-gradient);}.cls-2{fill:#fff;}</style><linearGradient id="linear-gradient" x1="1.86" y1="4.46" x2="22.33" y2="23.53" gradientTransform="matrix(1, 0, 0, -1, 0, 26)" gradientUnits="userSpaceOnUse"><stop offset="0" stop-color="#ffc107"/><stop offset="0.51" stop-color="#f44336"/><stop offset="0.99" stop-color="#9c27b0"/></linearGradient></defs><title>Social-Icon-02</title><path class="cls-1" d="M17.2,23.8H6.8A6.49,6.49,0,0,1,.3,17.3V6.8A6.49,6.49,0,0,1,6.8.3H17.3a6.49,6.49,0,0,1,6.5,6.5V17.3a6.51,6.51,0,0,1-6.6,6.5" transform="translate(-0.3 -0.3)"/><path class="cls-2" d="M18.1,6.7a.8.8,0,1,0-1.6,0,.86.86,0,0,0,.8.8.79.79,0,0,0,.8-.8" transform="translate(-0.3 -0.3)"/><path class="cls-2" d="M12,15.7A3.7,3.7,0,1,1,15.7,12,3.76,3.76,0,0,1,12,15.7m0-9A5.3,5.3,0,1,0,17.3,12,5.34,5.34,0,0,0,12,6.7" transform="translate(-0.3 -0.3)"/><path class="cls-2" d="M19.7,17.4a2.26,2.26,0,0,1-2.3,2.3H6.6a2.26,2.26,0,0,1-2.3-2.3V6.6A2.26,2.26,0,0,1,6.6,4.3H17.5a2.26,2.26,0,0,1,2.3,2.3V17.4ZM17.3,2.6H6.7A4.12,4.12,0,0,0,2.6,6.7V17.3a4.12,4.12,0,0,0,4.1,4.1H17.3a4.12,4.12,0,0,0,4.1-4.1V6.7a4.19,4.19,0,0,0-4.1-4.1Z" transform="translate(-0.3 -0.3)"/></svg>