<svg id="Layer_1" data-name="Layer 1" xmlns="http://www.w3.org/2000/svg" width="84" height="78" viewBox="0 0 84 78"><defs><style>.cls-1{fill:none;}.cls-2{fill:#606060;}.cls-3{fill:#e4154e;}.cls-4{fill:#fff;}</style></defs><title>About</title><path class="cls-1" d="M39.11,18.8A12.39,12.39,0,1,0,25.85,31.16l.87,0,.84,0A12.37,12.37,0,0,0,39.11,18.8Z"/><path class="cls-2" d="M70.65,24.62A12.38,12.38,0,0,0,63.42,2.16h0a12.38,12.38,0,0,0-7.21,22.46A19.42,19.42,0,0,0,44.52,38.42a25.43,25.43,0,0,0-9.46-5.88,16.08,16.08,0,1,0-16.7,0A25.49,25.49,0,0,0,1.25,56.6a1.85,1.85,0,1,0,3.7.05s0,0,0-.05A21.72,21.72,0,0,1,25.79,34.86l.93,0,.9,0A21.71,21.71,0,0,1,48.45,56.6a1.85,1.85,0,1,0,3.7.05s0,0,0-.05a25.29,25.29,0,0,0-4.37-14.24,15.6,15.6,0,0,1,15-15.43H64a15.59,15.59,0,0,1,15,15.6,1.85,1.85,0,0,0,3.7.05s0,0,0-.05A19.34,19.34,0,0,0,70.65,24.62ZM27.56,31.16l-.84,0-.87,0a12.4,12.4,0,1,1,1.71,0Zm35.92-7.27a9.26,9.26,0,1,1,9.26-9.26A9.26,9.26,0,0,1,63.47,23.89Z"/><circle class="cls-3" cx="26.72" cy="57.1" r="18.74"/><path class="cls-4" d="M22.32,54.26v1.09H20.78v4.58H19.4V55.35H17.88V54.26Z"/><path class="cls-4" d="M29.28,54.3v5.63H27.91V56.41l-1.22,3.52H25.5L24.27,56.4v3.53H22.9V54.3h1.68l1.53,3.92,1.5-3.92Z"/><path class="cls-4" d="M33.75,58.9H31.62l-.35,1H29.82L31.9,54.3h1.58l2.08,5.63H34.1Zm-.35-1-.71-2.09L32,57.86Z"/></svg>