<svg id="Capa_1" data-name="Capa 1" xmlns="http://www.w3.org/2000/svg" width="389" height="171" viewBox="0 0 389 171"><defs><style>.cls-1{fill:#7fc4db;}.cls-2{fill:#73b8d0;}.cls-3{fill:#8bcfe7;}.cls-4{fill:#1a5c73;}.cls-5{fill:#3b87af;}.cls-6{fill:#5ba0b9;}.cls-7{fill:#2a6d85;}.cls-8{fill:#468aa1;}</style></defs><title>MULTIPLE INDUSTRIES &amp;amp; PLATFORMS</title><polygon class="cls-1" points="195.24 143.24 147.59 143.24 154.48 111.09 188.35 111.09 195.24 143.24"/><polygon class="cls-2" points="192.24 129.27 188.35 111.09 154.48 111.09 150.58 129.27 192.24 129.27"/><path class="cls-3" d="M205.22,146.94H137.6c-3.59,0-4.14-4.75-4.14-4.75h75.9S208.81,146.94,205.22,146.94Z"/><path class="cls-4" d="M89.88,2H252.95a7.9,7.9,0,0,1,7.9,7.9v94.75a7.9,7.9,0,0,1-7.9,7.9H89.88A7.89,7.89,0,0,1,82,104.66V9.91A7.9,7.9,0,0,1,89.88,2Z"/><path class="cls-3" d="M82,102.52v15.54a7.89,7.89,0,0,0,7.9,7.9H252.95a7.89,7.89,0,0,0,7.89-7.9V102.52Z"/><rect class="cls-5" x="87.75" y="9.47" width="167.32" height="85.97"/><circle class="cls-6" cx="171.41" cy="113.82" r="5.71"/><rect class="cls-4" x="32.59" y="66.77" width="60.84" height="87.08" rx="3.93" ry="3.93"/><rect class="cls-5" x="36.74" y="75.24" width="52.55" height="70.13"/><path class="cls-7" d="M67.12,149.83a1.44,1.44,0,0,1-1.44,1.44H61.14a1.44,1.44,0,0,1-1.44-1.44h0a1.44,1.44,0,0,1,1.44-1.44h4.53a1.44,1.44,0,0,1,1.44,1.44Z"/><rect class="cls-4" x="4.47" y="101.51" width="35.32" height="61.19" rx="3.48" ry="3.48"/><rect class="cls-5" x="6.65" y="109.2" width="30.97" height="44.91"/><circle class="cls-7" cx="22.13" cy="105.77" r="1.3"/><path class="cls-7" d="M25.81,158.45a1.43,1.43,0,0,1-1.43,1.43h-4.5a1.43,1.43,0,0,1-1.43-1.43h0A1.43,1.43,0,0,1,19.88,157h4.5a1.43,1.43,0,0,1,1.43,1.43Z"/><path class="cls-4" d="M370.4,164.19V82.69a7,7,0,0,0-7-7H246a7,7,0,0,0-7,7v81.5Z"/><path class="cls-2" d="M380.88,169H228.5c-3.16,0-3.65-4.18-3.65-4.18H384.53S384,169,380.88,169Z"/><rect class="cls-3" x="224.86" y="163.17" width="159.67" height="2.35"/><rect class="cls-8" x="288.28" y="163.17" width="30.81" height="1.33"/><rect class="cls-5" x="244.12" y="82.3" width="121.14" height="76.55"/></svg>