<svg id="Capa_1" data-name="Capa 1" xmlns="http://www.w3.org/2000/svg" width="403" height="209" viewBox="0 0 403 209"><defs><style>.cls-1{fill:#ab1643;}.cls-2{fill:#fcdae3;}</style></defs><title>AROUND THE WORLD</title><path class="cls-1" d="M99.66,54.86c3.7-2.47.71,4.14,0,0Zm-3,.24c1,0,1.56-.6,1.4-1.38C97.71,53.89,95,55.11,96.66,55.11Zm6-20.19a6.15,6.15,0,0,1,2.19-.93c-1.4-1.31-3.29-1.06-5.08-1C99.79,34.68,101,35.37,102.66,34.92ZM277,123.63c-.65.83-.19,5.4,1.53,3.83C279.52,126.6,277.35,124,277,123.63Zm71.09,58.63c.42,1.36,1.51,3,2.79,3.34a1.11,1.11,0,0,0,0-.8h1c0-1.15.37-1.4.37-2.48-.88.24-4.22-.68-4.12-.06C348.16,182.46,348.1,182.2,348.11,182.26Zm3.57-1.66a1.16,1.16,0,0,0,1,1.07c0-.88-.37-1.07-1-1.07C351.68,180.67,351.76,180.61,351.68,180.61Zm-4.2-.29c-.63.31-.23.81.23,1,0-.1.15-1.12-.23-1C347.38,180.35,347.54,180.28,347.48,180.31Zm27.63,9.46c1.87,0,2.3-3.49,4.56-3.94-1-2.08,2.76-1.75.06-3.39-2.14-1.28-1.28.91-2.55,2.3s-3.23,1.56-4,3c-.62,1.12-.42,2.34,2,2Zm-1.44.57a1.76,1.76,0,0,0-.41.44h.93c0-.31,0-.8-.52-.44ZM381,177.46c0,.57,0,2,0,2.18,0-.13-.91-.06-.93.62,0,.88.66-.06.81.49,0-.06.94,2.08,1.49,1.91.21-.06.76-1.1,1.1-1.43,1.72-1.62,2.9-3.57-.57-3,0-.94-.41-2.4-1.06-1-.71-.46-.81-1.93-1.64-2.76C378.73,173,381,176.87,381,177.46ZM369.58,157c.88,1.35,1.64,2.45,3.51,2.65C372.94,158.83,370.33,157,369.58,157Zm-37.21-10.27c-1.46.26.75.57,1.26.52v-.46A10.14,10.14,0,0,1,332.37,146.72Zm13,.58c-1.72,2.13.6,7.33-3.23,6.3,0,0-3.5-2.25-3.57-2.43-.67-1.44.7-2.21,1.13-3.34-1.95-.26-3.85-1.25-5.71-1.25.37.33.32.57,1,1-.34-.21-2.3,1.1-2.82,1.43-1.56,1,.86,1.18-1.74,1.69-.86.16-1.25-1-2.64-.52-1.15.42-1.3,2-2.61,2,.2.42.24,1.1.47,1.51h-1v-.78c-1.53-.08-2,3.16-3.78,4-1.31.63-3.34.83-4.79,1.39-.63.23-1.06,2.3-1.8.57-.63,1.93-.78,3.07.29,5-2.3-1,.19,2.52.66,3.78,1,2.56,1.91,4.24,0,5.91,1.33,0,2.11,1.48,3.81,1.2,1-.13,1.46-1.3,2.55-1.53.86-.23,1.77.62,2.5.42s.79-.84,1.44-1.1,1.3-.94,2-1.23c.49-.21.91.5,1.49.29,2.06-.78,4.4-2,6.82-.71,1.44.78,2.84,6.3,4.38,1.33,1.1.37,0,1.13.11,2.08,1.36-.81.84.32.75,1.56,2.24-.42,1.23,1.54,2.89,2.89a12.8,12.8,0,0,0,2.65.81c1.14,0,.78-1.12,1.49-1.15s.73,1.35,1.2,1.25c2.3-.49,4.72-1.36,5.57-3.5.55-1.4.68-2.84,1.56-4.33a9.24,9.24,0,0,0,.46-9.33c-.36-.75-.83-1-1.38-1.56-.37-.41-.37-1.14-.63-1.44a10.52,10.52,0,0,1-1.56-.7c-.37-.36-.34-1.22-.75-1.62s-1.91-.91-2.34-1.43c-1-1.28-1.33-3.8-2.11-5-.24-.39-1-.68-1.33-1.27s-.21-2.47-1.27-2.73A3.55,3.55,0,0,0,345.4,147.31Zm19.39-2.26c.33.5.68.34,1.1.18-.21-.57-1.45-.91-1.1-.18Zm-5.65-3.88c0,.49,1.12,1.1,1.43,1-.28-.71-1.1-1.15-1.1-1.83a1.09,1.09,0,0,0-.45,0A2.05,2.05,0,0,1,359.15,141.17Zm-6.65-.68c.13,1.48,4.37.75,4-1.56-.21,0-4,2.11-4,1.56C352.51,140.67,352.49,140.4,352.49,140.49Zm-19.33,2.89c0,.23,1.66.49.86-1.1C333.35,142.37,333.05,142.75,333.17,143.38Zm-5.94-.7c.11.6.75.47,1.27.24C328.05,142.54,327.83,142.81,327.23,142.68Zm9.75-2.3a1.68,1.68,0,0,0-.7,1.28C336.28,142.6,338.46,139.39,337,140.38Zm-1.62-1.85c1.05-.47,2.38.45,3.41.92.86.41,1.7.16,2.3,1.22.81,1.41-.11,1,.06,1.85,0,.21-1.13.18-.63,1.12.23.44,1.56-.55,2-.44,1.44.41,2,1.7,3.81,1.15,1.1-.33,1.06-1.92,2.87-1.27.71.26.88,1.13,1.51,1.49a4.35,4.35,0,0,0,2.27.88c2.5.57,1.67.75.44-1-.18-.26-1.4-.11-1.61-.29a7.83,7.83,0,0,0-.52-1.48c0-.18-1.56-1.28.39-1.1a10.88,10.88,0,0,0-3.05-2.5,20.43,20.43,0,0,0-4.89-1.87c-2.66-.86-2.51-.34-4.62,0-1.31.23-2.74-.41-4.58.06.2.71.47,1.4.81,1.22C335.42,138.51,335.31,138.56,335.36,138.53ZM326.19,136c-1,.23.91.47,1.27.41C327.45,135.79,326.74,135.95,326.19,136Zm11.94-.88a5,5,0,0,1,.11,1.23h1.15c-.18-.55-.49-.29-.49-1.23h-.78C338.15,135.25,338.42,135.14,338.13,135.17Zm-4.85.06a.89.89,0,0,0-.75.24c1.2.7,2.5,1.7,4.09,1C335.29,134,334.5,135.71,333.28,135.23Zm-.28-.39c1.57-1.59-2.71-.52,0,0C333.18,134.65,332.91,134.83,333,134.85Zm-1.17,1.43c.42.19.6,1.27.78-.1C332,136.27,332,136.32,331.84,136.27Zm-2.06,1.33c0,.42,2.42.81,3.12.81C332.74,137.12,330,137.47,329.77,137.6Zm-.92.16-.94-.21c.55,1.35,1.18.36.94.21S328.93,137.82,328.85,137.77Zm1.43-6.26c-.83,1.14-1.41,1.3-1.35,2.92.11,2.29.68-.49,2-.28.08-.76-.31-1.43-1-1.38a3.58,3.58,0,0,0,.29-1.27C330.16,131.67,330.28,131.62,330.28,131.5Zm-10.84,6.17s1.18,1.49,1,1.33a11.88,11.88,0,0,0,.23,1.49c.83-.55.63-2.21.63-3.12h.7c.08.37,1.33,3.17,1.82,2.94.88-.39-.75-3.46-1.25-4.11C327.94,136.21,319.44,133.09,319.44,137.67Zm6.68-4.9c-.89.32-6-.36-5.76,1.78,1.67-.78,2.13-.62,3.91-1,.55-.13.73.5,1.4.23.36-.16,1.7-1.56.45-1Zm-1.2,12.4c0,1,3.89-.91,4.32-1.33C327.71,143.07,325.18,144.71,324.92,145.17Zm-.47,1c-.47.06-.58.24-.34.58h.68c.06-.29,0-.71-.34-.58Zm-3.63-2.35c1,1,4.15.18,5.31-.31C325.2,143.32,321.25,143.32,320.82,143.79Zm-.41.75c-1.45.44,1.2,1.15,1.67,1.12-.19-.23-1.17-1.22-1.67-1.12Zm-2.89-1c-.83.06,2.08.24,2.66.24-.18,0-.21,0-.11-.31a13.36,13.36,0,0,0-2.55.06ZM305,141.6c1.31,1,3.18,1.35,5.44,1.58,1.79.19,4,1.12,5.92.84a2.43,2.43,0,0,0-2.87-1.12c.08-.81.67-.42,1.27-.78A48.73,48.73,0,0,0,305,141.6Zm-3.52-1.67c-.24.54-.08.79,0,0Zm8.19-7.85c-1.53,1.07-.57,3,.29,4.14,1.25,1.7,1.77,1.53,4.15,1.92s1.64,1,3-1a16.37,16.37,0,0,1,.57-2.14c.36-.58,1.67-.84,2.08-1.72-1.53-1-1.1-1.25-1.44-3.44,1.17.06.81-.71,2-1.12a10.64,10.64,0,0,1-2.53-2c-.91.06-1.58,1.62-2.29,2.25C313.89,130.37,311.11,133.14,309.68,132.07Zm-12.17,3.41c.06.76,1.33,2.65,2.08,2.81-.16-1-2.08-2.73-2.08-2.81C297.53,135.66,297.51,135.36,297.51,135.48Zm-1.85-2.55c.29.55.84.71,1.1,1.28a1.42,1.42,0,0,0-.93-1.51C295.63,133.26,295.83,133,295.67,132.93Zm-.86-1.51c0-.18-.36-.66-.36-.15a.71.71,0,0,0,.7.75C295.29,131.73,295.18,131.54,294.8,131.42Zm.41-2.64c-.65,0-1-.65-1.62-.57.28,1.35,2.4,2.68,3.12,3.59,1.12,1.38,2,3.42,3.23,5,.81,1,2.73,3.83,3.81,3.85,2.4.06,1-2.26,2.94-2.84a1.68,1.68,0,0,0-2.77-1.2c-.13-1.7-6.43-7.53-8.7-7.79C295.11,128.78,295.47,128.81,295.21,128.78Zm29.83-4c-1.25.13-2.34,1-1.67,2.37,1-2.43,2.48.36,4.09,1.06-.57-1.22.45-1.48.47-1.51,0-.23.5-3.18-.52-3.18s-1.22,2-2.37,1.27C324.86,124.82,325.12,124.85,325,124.78Zm-3.41-5.35c0,.42,1.3,3.7,2.25,3.52-.49,1.07,1.23,1.8.81-.29-.2-.89-2.09-3.07-3.07-3.23C321.61,119.59,321.69,119.46,321.63,119.43Zm1.67-.16c1.44,1,2.4,2.94,4,3.25,0-1.77-1.64-2.18-1.64-3.75-.94,0-1.41.5-2.32.5C323.48,119.4,323.48,119.27,323.3,119.27Zm-2.19,1c-.86,1.66-3.07,3.31-3.52,4.67,1.92,0,3.52-2.77,3.52-4.67C321.08,120.39,321.11,120.5,321.11,120.31Zm.89-6.77c-1.7.92-1.28,4.4.66,5C322.59,117.45,325.05,113.54,322,113.54Zm1.12-7.29c0-.55-2.29,1.31-1.95,3.44h.68C321.86,108.27,323.12,107.57,323.12,106.25Zm29.44-25.82c-1.15.21-1.9,1.15-3.41,1.27s-2.42-.19-4.15-1.17c-.06.52-.75,4.46-1.44,3-.31.54-1.35,3,.34,2.24v.58c-1,.18-1.51,3.46-2.64,4.74a9,9,0,0,0,0-.93,3.49,3.49,0,0,0-1.15,1.72c-.26-.36-.68.26-.52-.75a3,3,0,0,0-1.14,2.37c-2.3-1-6.6.91-7,3.44.44,0,1.06,0,1.33,0,0,1.12-1.23,1.62.47,2.11,0-1.18,1.9-2.89,0-3,.41-1.2,3.28-1.2,4.49-1.41-1.31.83-3.42,0-2.94,2.25a9.68,9.68,0,0,0,2.82-1.62c.54,1.23,2,.28,1.78-.8,4.56-.52,3.7-.75,4.79-4.56.6-2.11,1.31-3.76-.68-5.42,1.35-.26,3.6,1,3.52-.47,1,.21,5.53-2.3,5.53-3.57C352.48,80.44,352.56,80.5,352.56,80.44Zm2.14-1.1c-.49.08-.73.42-1.17.65.71.42.91,0,1.17-.65C354.62,79.35,354.6,79.56,354.7,79.33Zm5.65-6.17a5,5,0,0,1-.7,1.33A1.1,1.1,0,0,0,360.35,73.17Zm13.79-6.07c-.11,0-.32-.58-.63-.34a1.82,1.82,0,0,0-.06.67C373.64,67.47,374.37,67.55,374.14,67.1Zm-1.56.18c-.23-.65-.16-1.05-.76-1.51,0,.62.13,1.15.18,1.75.41.11.7.13.58-.24Zm-3-6.26c.44,0,.73-.52.76-.83-1-.39-1.1.23-1.49.83A1.85,1.85,0,0,0,369.56,61Zm26.66-8a12.77,12.77,0,0,0,3.29.45c-.83-1.62-2.61-.37-3.29-.45C396.4,53,396.13,52.95,396.23,53ZM386,38.83c1.25.28,2.79-.28,4.09-.28a3,3,0,0,0-2.27-1.22c-.31,0-2.79,1.25-1.82,1.49ZM350,30c1.13.45,4.88,1.81,4.88-.3-1.61-.08-4.06.15-4.72-1-.11.11-.52,1.12-.16,1.27C350,30,349.86,30,350,30ZM343,33.7c1.4.22,2.65-.07,4,.4C346.55,32.14,344.38,32.64,343,33.7Zm1.15-1.45c.76,0-.65-.65-1.09-.63C343.1,32.32,343.57,32.25,344.18,32.25Zm-4.32-2.6c1.25,1.83,8.29,1.33,8.76-1-1.12-.21-2.53-.88-2.53.95a2,2,0,0,0-.7,0c1.22-2.55-1.45-1.1-2.34-1.12C341.28,28.45,340.83,27.59,339.87,29.65Zm-1.22-.46a.84.84,0,0,1,0-.69c-1.28-.18-.63,1.17,0,.69C338.63,29.12,338.54,29.28,338.65,29.19ZM338,31.67c.39.94.34,1.51,1.49,1.36A7.65,7.65,0,0,0,338,31.67Zm-30.7-8.48a1.56,1.56,0,0,0-1.95-.45c.16.19,2.22,1.15,1.95.45C307.27,23.1,307.35,23.28,307.32,23.2Zm-13.44,2.71a3.82,3.82,0,0,1,1.22,0C295,24.45,294.33,25.6,293.88,25.91Zm5-2.08c.23,0,5.7-1.17,5.83-1.32,1.35-1.77-2.69-1.59-3-1.73.28-.28.39-.29.47-.64C299.8,19.72,298.63,23.83,298.89,23.83Zm-3.68-5.7c-4,.58-3.46,2.85.24,3.19,2.81.27,3,.33,2.86-1.35-.18-2.28,0-1.15-2.13-1.15a1.36,1.36,0,0,0,.29-.68C296,18.12,295.63,18.12,295.21,18.12Zm-3.47.23c1.61.85,3.86-1.38,4.79-2-2.09-1-5-1.12-6.64,1.1a11.15,11.15,0,0,0,1.85.87C291.82,18.4,291.69,18.31,291.74,18.35Zm-.46.52c-.76,0-1.31-.44-2.11-.29C289.27,20.92,292.34,18.87,291.28,18.87Zm-2.37-3.76c-1.73,0-.39.72-.52.93C288.06,16.61,290.64,15.11,288.91,15.11Zm-45,27.06c-1-.17-2.68-1.35-1.95,1,.65,0,1.83-.33,1.95-1C243.84,42.17,243.89,42.25,243.9,42.17Zm4.44-8.36c-1-.1-3.13,2.57-3.13,4,.6-.12,1-.5,1.35.23a.35.35,0,0,0,.23-.45c1.31.67.41,1.41,1.12,1.73a11.41,11.41,0,0,0,3.73.26c-.13-1.4-1.69-1.85-1.78-3.15-.13-1.61,1.22-2.54,2.19-3.52a15.17,15.17,0,0,1,7.84-4.38c1-.24,5.18-1.11,4.74-2.19-.65-1.58-3.07.19-3.93.45-2.09.67-9.05.85-9.05,3.41a4.14,4.14,0,0,0-1.27,0c1.07,1.84-2.71,1.78-2.37,3,.39-.08.5-.23.93-.18-.21.54.36.88-.58.81Zm17.36.52a2.77,2.77,0,0,0,1.66-.7C267.85,33.38,264.27,34.34,265.71,34.34ZM257.47,16c1.3,2,2.17.1,3.63-.17C259.76,15.11,258.73,16.46,257.47,16Zm-2.82,0c0,.67-.47.48-.81,1a6.63,6.63,0,0,0,3.23.15C256.1,16,256.2,15.13,254.64,16Zm-.41,2.09a3.26,3.26,0,0,1-.92.17c.16.8.68.35,1.33.23-.06-.32,0-.5-.41-.4Zm-4-.35c.54.46.62,1.18,1.44.11,0,1.29,1.67.08,1.9-.11a.9.9,0,0,0-.06-.46A8.19,8.19,0,0,0,250.2,17.78Zm-3.3.11a5.22,5.22,0,0,1,4.45-1c-.34-2.08,1.9.73,2.19-1.2a8.59,8.59,0,0,1-1.44,0c.19-.28.57-.95.7-1.1a4.54,4.54,0,0,0-1.74.63,13.46,13.46,0,0,0-1.56.46c-.42.26-.57.84-1.15,1.27C247.54,17.49,247.15,17,246.9,17.89Zm-4.61-1.56c-1.7,0-2.13.6-3.75.28.08,1.24,2.21.41,3.18.41-2,1.46,1.38,1.83,2.37.52C245.69,15.41,244.18,16.33,242.3,16.33Zm-33.06,2c.37.95,2.47-.32,2.87.75-.57,0-1.15,0-1.74,0,1.06,2.93,6.81.32,8.15-.46-1.3-1.44-3.12-.24-4.27-.58.21-.43.5-.35.41-.86-1.36.54-1,.07-1.8,1.44-.5-1.31-4.22-1.61-3.62-.28C209.27,18.4,209.18,18.17,209.24,18.3Zm-2.32,4.38c0,.32-3.08.13-3.46,1.39.75-.16,3.08-.7,3.39-.29-.47.31-3,.71-3,.92-.06.39,2.19,1.48,2.68,2.13,1.49-1.13,2.92-3.32,2.92-4.88a6.17,6.17,0,0,1,1.64,0c-.19,1.4.16.41.76,1.22.44.59-.47,1.1-.47,1.7,1.59-1,1.75.32,2.37.23s1.77-.78,2.42-.93c-.7-.92-1.41.14-1.41-1.21-.68.09-5.27-2.65-5.4-3.07a1,1,0,0,1-.93,0,5.18,5.18,0,0,0,.42-.92c-1.74-.82-1.78.13-2.6.36.39-.11-.62,1-.73,1,.26-.09-.44-1.37-.55-1.4a12,12,0,0,1-1.9.79c.23-.36.32-.74.52-1-1,.22-5.32,1.25-1.9,1.73a8.18,8.18,0,0,1-.06,1.91c-.63-.32-.55-.87-1.33-1,.31.62,1.54,2.65,1.54.81.73.06.78,1.15,1.8.8.41-.13.63-.88,1-.92,0,0,2.16-.2,2.27.69C206.92,22.72,206.89,22.47,206.92,22.68ZM349.67,60c2.89,0,3.37-1.23,5.37-.81,1.1.21-.21,1,.93,1.27,1.64.39,1.1-1.23,2.53-.13.11-.76.62-.16,1.27-.23-.36-1.44-.91-.16-.34-1.67A8.26,8.26,0,0,1,361.69,56c1.87-1,3.44-.63,3.44,1.48,2.51-.47,3.15-3.89,5.53-3.42-1.59,1.3-2.14,3.34-3.91,4.8-2.24,1.85-5.08,2.87-5.87,5.29A12.87,12.87,0,0,0,360.7,70c.47,2.22.23,2.58,1.88,1.7s1.92-4.93,4.69-4.22c-.75-1.41-.18-3.33,1.43-2.3-.52-1.15-.08-2.22-.23-2.94-.1-.36-.76-.1-1,0a10.18,10.18,0,0,1,1.33-3.12c1-.88,1.07-.37,2.27-.65.65-.13.41.45.84.42.6,0,.76-1,1.27-1.05A17.12,17.12,0,0,0,375,58c1.44-.16.26.88,1.4,1.1,0-2.74,6.52-4.43,8.37-5,1.67-.47,1.85,1.48,1.27-1-.52-2.24-1.67-1.35-3.12-2.3-.83-.62,3.42-.47,3.41-.45,1.23-.49,1.62-1.17,1-2.43.86-.06,1,.84,1.26.87a20.32,20.32,0,0,1,2.19.45c1.17.55.88.91,2.37,1.27,2,.52.47.36,1.56-.06.89-.32.18-1.2.7-1.66s3.57.9,2.3-1.34c-.46-.8-3.67-1.35-4.45-1,.71.49.89,1.64-.29.8-.42-.3.18-1.45-.37-1.91-.29-.24-.84,0-1.09-.25a18.89,18.89,0,0,0-2.11-1.33c-1.2-.64-2-1.08-3.23-1.7-2.6-1.27-8.19-2.24-9.87-.53,2.9,1.18-4.56,2.23-.58-.35-1.2-.9-2.21.33-3.41.5-1.46.19-4,.37-5.31-.27a7.41,7.41,0,0,0,0,1.33c-1.83-2-1.74-4.39-5.53-4.16-1.41.09-2.77.54-4.22.24-1.87-.39-2.22-1.33-3.86-1.51.34-.42-.28-.26.57-.69-2.45-1.38-5.27,2.09-4.2-.75-1.22,0-2.45-.67-3.73-.7-2.43,0-1.87.34-4.11.7,0,1,1.15.94,1.15,2a15.15,15.15,0,0,0-2.71-.43c.21.3.78.75.57,1.24-1.1-.21-1.31-1.06-2.35-1.26,0,0-2.74,0-2.89,0-1.51.4-1.25,1.87-2.42,1.87A22.74,22.74,0,0,1,331,37c-.19-.5.63-2.13,0-2.89-1-1.17-1.8.1-2.82-.17-2.29-.6-3-2.16-3,1-1.78,0-2.79.19-4.4-.47-.58-.24-.93-1-1.66-1.21-1.39-.36-3.89.31-5.4.31v-.89c-.54.17-1.4.71-1.88.23.13,0,2.58-1.2,1.44-1.49s-2,1.67-3.68,1.39c.24,1.51-2.29,1.38-3.65,1.38,1.46-.14,7.89-4,8-4.84.62-3.47-6-3.17-7.45-2.6.29-.36.52-.43.52-1a23.84,23.84,0,0,1-2.53-.18,7.76,7.76,0,0,1,1-1.26c-3.34-.26-3.47.89-5.55,2a.88.88,0,0,1,.29.62c-2.29-.54-2.47,1-4.38,1.23-.7.06-2-.77-3-.65a31.64,31.64,0,0,1-3.3,1.57,23.43,23.43,0,0,0-2.92.74A11.65,11.65,0,0,0,284,31c-1,1.42,1.77.46.08,1.7-1.85,1.35-5.31-.39-7.19,1.27.5,1.19,3.85,3.14,2,3.29-.54,0-1.23-1-1.56-1.09a6.26,6.26,0,0,0-3.86-.24c.54.26,1.22.2,1.22,1-4.3-.28.7.71.5,2.08-.7-1.08-2.55-.37-3.39-1.44-.29-.37,0-2.2-.29-2.89a.53.53,0,0,1-.47.11c0,2.13-1.27,1.27-1.49,2.54,0,0,.36,3.54.44,3.67,1.23,2,.89.19,2.4.78,1.87.74,1.77,1.71,1.77,2.94,0,.44,1.46.67,1.69.7-2.4,1.58-1.92-4.4-5.18-1.74a5.87,5.87,0,0,1-.13,2,3.51,3.51,0,0,1-1.57,1.35c-1.75,1-1.72.58-4,.43.49-.71,2.3-.59,3.23-1.38a3.61,3.61,0,0,0,1.43-2.81c-1.33.11-1.8-5.15-1.67-6.63h.75c.39-1.93-2.77-2.42-4.15-1.39-.18.15-2.37,3.68-2.42,3.84.37-1,.39,2.51.06,1.87.29.62.86.46,1.27,1.31.26.55,1.49.53,1.27,1.39-.39,1.51-1.9-.55-2-.58-1.69-.45-3-1.07-4.61-1.61-.84-.28-3.89-1.87-4.38-1.78-2.13.32,4,2.77-.1,4.38,0-3.21-6.68,2.33-5.45-1.32-1.77,1-3.78,1.08-5.57,2.27-.31.21-4.15,3.73-3.89.18,2.92.1-.49-1.87-2.14-1.87.73.72,1.25,4.39.52,4.84a5.09,5.09,0,0,0-2.25-.43c-.42.08-1.59,1.4-2.42,1.47a4.21,4.21,0,0,1,.81,1.8c-1.18-.62-2.58,0-3.57-1.28-2.38,1.28,1.2,1.44,1.2,2.19,0,.58-1.8.31-1.95.23-1.78-.84-.89-.63-1.69-1.95-.67-1.14-2.09-2.59-3.17-4,1,.18,11.07,4.19,9.87-.52-.29-1.13-3-2.17-4.09-2.56-1.66-.62-4.12-.17-4.85-.62.84-1.77-2.56-1.2-3.34-1.92,1.3,0,.63-.6,0-.95-1.67-.88-1,.23-2.18.23a7,7,0,0,0,.36-1.13,4.76,4.76,0,0,0-1.59,0,13.47,13.47,0,0,0,0,1.42c-.29-.72-.55-.58-1.12-1.1-.21,1.27-.78,1.8-.78.18a2.57,2.57,0,0,1,.83,0v-.75c-.49.07-3.62,1.74-2.48.52-2.42-.24-2.21,1.07-.92,1.78-.7-.28-1.62,0-2.35-.28,0,.67.11.84-.36,1.22,0-.83-1.2-1.58-2-1.5.32,1.15-.76,2.94-1,1.27-1.41,1.41-.1.41-.58,1.91-1.18-.48-.91-.15-1.26-1.33-.49.17-.76.69-1.51,1,.21.38.18.2.18.58a2.7,2.7,0,0,0-2.3,1.27c1.2-.38,3-1.5,4.25-.86-1.7.39-4.22,3.29-4.54,5.37a4,4,0,0,0-1.91,1.08h.93c-.13,1.14-2.76,2.27-3.57,2.09a1.41,1.41,0,0,0,.11.86c-3.13.65-3.52,2.47-4.15,4.74,2.6-.08-.93,1.56,1.44,1.75,0,.65-.37.75-.29,1.36,2.55,0,3.49.29,5.19-1.85,1.12.19,2,4.19,3,5.31.28.32-.63.89.08,1.15,1.66.65.94-.55,1.64-.81,1.25-.44,1.93-.88,3-1.14a.73.73,0,0,0,0-.58c-.62.06-.8,0-1.15-.23.36-.57,1.85-2.43,2-2.73.37-1,1.79-1.78-.34-1.78,0-1.53-1.31-3,.28-4.79.8-.94,2.27-1,3-2,.49-.63.5-2.46,1.64-3.17a2.47,2.47,0,0,1,3,1.42c.34,2.24-6.9,3.49-3.57,7.35,2.34,2.71,6.43-.58,9.17,1-1.53,1.56-3.72.88-5.53,1.1a33.21,33.21,0,0,0-3.25,1c.26.1.46.23.7.32a4.5,4.5,0,0,0-1.44.36c.63,1.66,1.83-.26,2.26-.06.79.39.86.81,1.56,1.28-2,2.52-1.85-.42-3,0-1.39.5-1.3,3.52-1.33,4.27-1.18,0-2.71-.65-1.72,1-1.78-1.82-2.77.13-4.74.31-.67,0-3.52-1.62-3.72.21a3.74,3.74,0,0,1-1.88-.63c.21-2,3.07.84,2.77-2.71a6.55,6.55,0,0,1-2.08.58,5.7,5.7,0,0,1,.34-1.23.83.83,0,0,1-.68,0c.26-1.88-.23-2.22-1.69-.73-1,1-.28,2.16-.32,3.16-.11,2.6.65,1.17-1.36,2.34a9.43,9.43,0,0,1-4,1.2c1.48,1.9-1.4,1.7-2.48,2.53-.11.08-1,2.14-1.33,2.24-1.09.34-1.75-.65-2.47-.58,1.69,2.9-1.66.88-2.66,1.66-1.22.94.32.62.71,1.18a12.11,12.11,0,0,1,1.82,2.32c3.28,6.54-4.67,2.5-7.9,3.86.62,2.09-.29,4.54.23,6.57.47,1.82-.15.7,1.44,1.72,1,.65,1.53,0,2.48,1.22.21-.24.18-.36-.11-.34a14.73,14.73,0,0,0,5-2.48c.54-.5.8.13,1.2-.44.24-.34-.49-.91-.46-.94.2-.28.34-1.43.75-1.91.54-.65,2.87-1.33,3.28-1.67s-.34-1.25.54-1.78,2.06.57,2.87.42c.31,0,1.83-1.88,2.66-1.75,1.12.19,2.24,2.32,3.16,3.07,2.79,2.17,7.72,5.14.76,5.14,1.87,3.26,4.8-.13,5.6-2.06h-1a2.66,2.66,0,0,1,0-.62,11,11,0,0,0,2.09.41,7,7,0,0,0-4.44-3.23c.18-1.09-1.62-2.45-2.43-2.39.24-3.63,2.58-.41,4.37.89,1.22.89,2.81,1.51,3.49,2.76.42.78,1,2.86,1.45,3.7a1.71,1.71,0,0,0-1-.16c.37,1,.89,1.46,1.56.68.7,3.57,3.07-.26,4.38-.47a1.09,1.09,0,0,0-.93-.68.83.83,0,0,1,0,.68c-.68,0-2.11-2.13-1.9-2.58.7.39,1.09.62,1.85.28a.39.39,0,0,0-.41-.28c2.61-3.85,4.06,6.13,4.46,6.13s.36-1.3.36-1.48a3.77,3.77,0,0,0,2.61.83c-.83-.11,1.33-.55,1.28-.55.83,0,1.2,1,2.55.68a6.79,6.79,0,0,1,0-1c2.53.52,2.73,1.4,1.8,4.09a6,6,0,0,1-2.3,2.82c-1,.42-1.91-.58-2.84-.1,1.44.68,2.45,5,4.09,3.34,2.45,2.56,3.05,6.07,4.66,8.76,1,1.69,3.12,3,4,5,1.18,2.63-.39,4.22,2.94,4.28,1.49,0,3.26-1.43,4.74-2,1.69-.68,2.52-1.4,3.86-2,1.74-.79,2.77-.45,4-1.85.57-.62,1.74-2.21,2.48-1.9,0-1.62,0-1.69,1.22-2.19-.13-.78-1.44-1.66-2-2.14-1-.89,0-1.82-1.49-.34-.16-.7-.37-2.22-.93-2.65a2.68,2.68,0,0,0-.93,2.08c-2.3-.19-5.91-.11-1.67-.88-.07-.26-3.31-1.17-3.47-1.27a7.89,7.89,0,0,1-2.18-2.82c-.44-2.66.84-1.79,2.42-.68a15.57,15.57,0,0,0,4.9,2.7c.39.13,1.31-.13,1.85,0s.5,1,1.05,1.26a17,17,0,0,0,4.77.76c2.77.1,3.55-.15,5.78,1.12,1.2.68,1.31,1.54,3.12,1.88-3.18,0,.47,1.66,1.2,1.9,1.2.39.57-1.62,1.85.18.63.84.13,1.95.29,2.89a25.26,25.26,0,0,0,1.67,5.06c.45,1.17,1.28,5,2.42,5.66s2.4-.54,3.07-1.91a9,9,0,0,0,.57-3,11.62,11.62,0,0,1,0-2c.6-1.54.47,0,1.59-1.14,2.16-2.08,4.71-5.22,6.7-6.33a22.49,22.49,0,0,1,4.2-1.1c.65.42,2.14,3.78,2.14,4.54,2,0-.29,1.66,1.15,2.79,1,.76,2.08-.86,2.25-.81,1.54.42,2.61,4.48,2.58,6.15,0,.89-1.38,1.83-.78,3.36.36.91,1.75,1.75,2.26,2.9.6,1.4,1.85,6.41,4.53,5.13-.91-1.57-.91-4.37-1.83-5.52-1.35-1.61-2.92-1.53-3.3-3.86-.08-.54-.6-2.87.28-3.6,1.41-1.15.24-.28,1.62.47,1.2.65,1.09.62,2.16,1.95.24.31,1.12.55,1.25.75.39.65-.11,1.22.45,2.21,1.15-1.62,2.9-2,3.81-3.3,1.69-2.3.63-4.23-.75-6-2.09-2.73-2.65-6,2.19-6,.31,1.39-1.78,2.92-1,3.63,2,1.75,2.4-3.37,2.35-3.34.86-.78,2.73-.83,3.7-1.13a8.25,8.25,0,0,0,3.1-1.67c1.67-1.25,4.75-4,5.14-6.25.29-1.66-.58-.63-.75-1.75-.1-.62.5-.49.29-1.59-.26-1.33-2.11-3-2.08-3.94.06-1.83,1.93-1.22,2.6-2.19s.58-.81-1.14-1.44c-.76-.26-.57.89-1.56.89.28-2.16-2.55-.65-1.3-2.66a18.14,18.14,0,0,0,2.37-.94c2.53-1,1.78-1.27.75,1.4.75-.42,2.74-1.48,3.59-1.1,1.77.8.37,1.07.52,2.53,2.73-1.13,1.9,3.18,1.61,4.49,1.95.21,4.15-1.09,4.11-3,0-1.69-2.18-1.88-1.74-4.23.1-.47,1-.11,1-.34a15.94,15.94,0,0,1,.47-2.09c.39-.54,1-1.62,1.77-1.95.42-.18,1.95.16,2.73-.06a4.35,4.35,0,0,0,2.13-1.27,25.57,25.57,0,0,0,3.88-4.56c1-1.54.75-2.77,1.44-4.37,2.24-5.26,1.23,5.11,1.23,6.56.42-.42.75-.19,1.12-1,.52.49.06.88,1.17.93-.31-2.11-2.56-4,.57-4,.08,0-1.49-7.17-1.56-8h-.46c.08,1.72-.47,1.59-.47,3.18-1.31-.78-1.06-2.47-3.46-3.18-.28,1.75-1.12,1.17-1.85,0a2.22,2.22,0,0,1,0,.92c-1-.15,0-.8-.75-1.44-1.62,1.62,0-.83.57-1.49.91-1,1.87-1.69,2.86-2.92C344.67,60.19,346.54,60,349.67,60ZM181.48,61.09a2.14,2.14,0,0,0-1.22,1.33c.49-.13,2.09-1.49,1.22-1.33C181.26,61.16,181.54,61.09,181.48,61.09ZM182.69,74c1.17,0,2-.81,2.71-.92,1-.16,2.47.32,3.29,0a2.75,2.75,0,0,0,1.54-3.41c-.24-.84-.88.5-.91.47-.39-.41-.33-1.07-.63-1.33-.52-.45-1.23-1.53-1.91-2.32-1-1.22-1.17-.92-1.33-1.9-.1-.65,2.56-3.18-1.38-2,.32-.57.37-1,1-1.4-1.3-1.3-1.87.71-2.35,1.1-.08.06-2.71,1-.65,1.31-.18.6-.84,1.48-.81,1.85.68.08,1.54.63,1.72-.11-.16,2.26,1,1,1.87,2.82,1,2.11-1,.67-2,1.91a8.14,8.14,0,0,0,1.15.11c0,.63-1.56.89-1,1.49.33.37,1.95-.18,2.48.34C185.19,72.19,182,74,182.69,74Zm-1-5.94c2.56-.37-4.07-3.67-2.53-.58-1.22.23-2.86,1.93-.86,1.83-2.6,3.76,1,1.27,3.23,1.75A27.51,27.51,0,0,0,181.7,68.09ZM243.45,156c0-2.22,1.59-6.8-1-7.84a6.62,6.62,0,0,1-1.49,3c-1,.89-2.48.52-3.47,1.48-.76.75.1,3.07,0,3.68-.18,1.17-.68,1.31-.93,2.77-.31,1.9.13,4.71,2.66,4.15s1.66-1.28,2.08-3.46c0-.26.65-2.73.7-2.77C242.15,156.72,243.45,156.33,243.45,156ZM224.28,100.9c-1.1-2.63-1.74-1.62-4.15-1.91-3.49-.42-6.18-1.54-9.46-2.29,0,3.16.06,2.58-2.08,2.61.44,0-1.88-.68-1.66-.58h-1.69a2.44,2.44,0,0,1-.34-.93c-1-.34-4.11-.84-4.74-1.7-1.18-1.59,1.33-1.88-.81-3.26.57-.47.5-.54,1.28-.7-1.09-1.85-4.07-.13-5.66-.1s-3.49-.71-5.65.23c-1.46.62-2.45,1.48-4.38,1.43-2.34,0-3.59-1.66-3.59,1.38h-1.74c.78,2.81-1.27,1-1.72,1.92-.73,1.48-.49,3.23-1.15,4.17-.41.55-1.93,1.3-2.55,2.08s-1.46,2.14-2.19,3.21-3.64,3.8-3.23,5.42c.11.45,1.75-.19,2,.36s-.32.65-.23.91c.45,1.2-.31,3.18-.41,4.4a4.72,4.72,0,0,0,1.39,4.43,71,71,0,0,0,5.31,5c.66.58,1,1.92,2.42,2.21,1.61.29,1.82-.39,3.34-.58,1.33-.16,2.34.42,3.25.39,1.91-.06,1.78-.79,3.34-1.33a10.28,10.28,0,0,1,4.72,0c1.15.52.86,1.36,2.56,1.75,3,.65,2.79-.81,2.86,2.3a6.46,6.46,0,0,1-1.38,4.15c3.7,1.17,6.13,8.73,5.53,12.33s-2.77,3.78-.91,7.63a29.11,29.11,0,0,1,2.19,6.46c.67,2.73,2.79,4.58,3.57,7,.66,2.11-.36,2.77.7,3.93,2.79,3.05,10.17-.55,12.35-2.89a17.42,17.42,0,0,0,2.76-3.57c.49-1.07-.16-2.6.11-3.25s2.08-.84,2.66-1.62c1.57-2-.8-2.92-.34-5.06.36-1.74,3.57-2.63,4.5-3.47,2.29-2,2.42-4.33,1.85-7.42-.33-1.74-1.93-4.32-1.27-6.43.88-2.84,4.51-5.58,6.69-7.5a19.38,19.38,0,0,0,4.27-5c.73-1.28,1.2-1.4,1.38-3.12.29-2.71.73-2.06-1.61-2.08-3.25,0-4.2,1.22-6.46-1.25-1.3-1.44-3.39-2.79-4.62-4.4s-2.48-5.18-3.23-7c-1.12-2.86-1.77-5.79-3.81-8.32C224.2,100.7,224.41,101.06,224.28,100.9ZM106.93,189.24c-.45-.1-.42-.81-.75-.81.15,0-1,1.36-1,1.35a14.92,14.92,0,0,0,2.3,1.95.63.63,0,0,0-.11.47c-3.7,0-.75,3.26-1.33,4.61a3,3,0,0,1,.92,0c0,.32-.16.5-.52.54.6.63.29.26.88.41a24.79,24.79,0,0,0,2.87,3.57c2.21,1.36,4.3.7,6.41.54-.1-.68-2.74-1.44-3.29-2.76s-1.7-4.54.41-4.33c0-1.33,2.68-2.82,2.48-3.78-.21-1.13-2.89-.45-2-2.71.29-.71,1.75-.32,2.08-.71s-.1-.94.29-1.36c-.26.29,1.36-2.53,1.15-1.49.37-1.85-1.38,0-1-2.69,2.71,1.09,3.25.1,2.84-2.42,2.24.06,4.93.15,6-2s-1-1.78-1.41-3.8c2.5.32,3.44,1.2,5.37-.52.91-.81,1.62-4.07,2.65-3.93-.15.46-.23.5-.11.93,3-1.48,2.14-5.68,3.76-7.61a7.68,7.68,0,0,1,4-2.3c2.37-.68,3-.52,4.35-2.84,1.57-2.74.93-6.9,2.19-9.1.92-1.61,3-2.56,3.49-4.41a2.68,2.68,0,0,0,0-2.29c-.68-2.47-.65-.84-2.19-2.06a8.07,8.07,0,0,0-4.43-2c-1.12-.23-5.08,0-3.42-.81a7.64,7.64,0,0,0-2.42-1.2c-2-.39-1.57.06-3,.68a15.67,15.67,0,0,0,.75-1.66,12,12,0,0,1-1.8-.49c-.52-.16-.23,1.17-1.31,1,.21-.49,2.32-3.13.34-3.13.34-3.5-2.9-3.68-5.06-4.24-1.75-.42-5.63-2.21-5.63-4.17-1,.34-2.76-.11-1.22-.81-1-1.31-3.15.54-3.75.52-2.21-.08-3.26-1.93-5.37-2.32,0,1.14-.78.88-1.44,1.56-.1.1.19,1.66.11,1.91a2.46,2.46,0,0,1,.34-3.8c-1.95-.55-7.4,3.07-7.72,5.52-.18,1.36,1.25,2.79.32,4.67a10.14,10.14,0,0,1-3.75,3.57c.19,1.75-.54,2.08,1.27,2.21-.75,1.3-2.5,2.08-1.49,4.2.24.54,1.38.65,1.85,1.31a14.42,14.42,0,0,1,1.23,2.37c.63,1.56,1.22,4.15,2.22,5.32,1.38,1.59,3,2,4.75,3.39,2.9,2.29,1.83,7.16,1.36,10.73-.26,1.95-1,3.81-1.22,5.61-.26,2.14,0,4.38-.86,6.39-1,2.24-.89,3.55-1.49,6.07,0-.15,0,1.66,0,1.2,0,.39-.78.78-.62,1.27.81,2.42,1.51-1.2,2.34-1.27a20.66,20.66,0,0,0-1.05,5c-.45-.76-.57-.34-.73-1.39C106.17,187.23,107,188.8,106.93,189.24Zm2.89-74.48c2-.45,4.92-.11,6.93-.81-.89-1.1-3.63-.75-5.32-1-1.07-.13-3.28-1.4-3.46.29a1.44,1.44,0,0,0,1.85,1.49Zm-5.42-.36a2.33,2.33,0,0,0-2.42-.81c.6.81,1.72,1.51,2.42.81C104.3,114.27,104.22,114.59,104.4,114.4Zm2.08-2.58c-.88-1.41-4.48-2.25-6-2.84-1-.36-3.25-1.28-4.48-.57s-1,.91.44,1.61c.63.33,1-.66,1.62-.55.84.13,1.38.86,1.83,1A16.78,16.78,0,0,0,106.47,111.82Zm55.74-62.6c1.06-.17,1.43-.15,1.72.92a6.12,6.12,0,0,0-2.3,0c0,.23.08.47.11.7,2.35-.39.54.94,1.74,1.38.26.08,3,.36,3.12.34,2.08-.1,2.26-.54,4-1.49,1.51-.83,2.17.32,2.65-1.27.19-.63-.91-.65-1.15-.69.5-2.87-3.41-.32-5.34-.57-.29,0-2-.27-1.7-.24-.83-.07.06-1.3-.81-.24-2.11-.71-2.63,1.27-2.06,1.15ZM126.66,72.29c-.45.29-3.13,4.61-2.94,4.93.41.68,1.83,0,2.61.26a17.19,17.19,0,0,1,2.63,1.4c1.8-2.73.11-3.67-2.53-4.51,0,0,1.61-2.86.23-2.08C126.51,72.39,126.81,72.23,126.66,72.29Zm-6.23,2.55c-1.15-.37-1.66-.86-2.77-.7,1.05.63,1.74,2.19,2.77.7C120.27,74.79,120.38,74.92,120.43,74.84ZM153,43.8c.32-.12.68.35.94.42,2,.66,2-.12,3.72-.78,1.49-.58,5.19-1.38,5.71-2.77-2,1.57-6.75-2.1-1.7-1.89-.21,0,2.26,2.59,2.82.34.21-.83-1.85-2.82-2.5-3.18.36-.32,2.63,1.34,1.95-.8-.33-1-.91-1-2.24-.58.26-.41.52-.37.68-.75a2.87,2.87,0,0,1-.68-.3c.73,0,2.82,1,3.8.36,2.24-1.49-1.38-1-1.38-1.68,0-.18,3.41-.34,3.64-.75-.71-.71-2.6-1.92-.34-2.11,0-1.87-2.76-1.86-2.43-2.91.13-.43,1.49-.59,1.85-.46,1.48.57.26.69.93,2,.41-2.39,1.33-3-1.56-3,.8-.88,0-.24,1.38-.89-.81-1.24-2.81,0-2.82-.06-2.06-1.66,5.21-6.17,5.89-7-.93.06-1.82-.11-2.73-.13,1.88-.39,3-.33,4.58-1.39.44-.28,2.77,0,1.72-1.55-.18-.28-2.6-.15-2.82-.12a35.1,35.1,0,0,0-4.62.86c-.88.25-4.49,2.17-5,2.08,2.08-2.6,3.21-3-.57-3.55,0,1.51-1.09,1.35-2.55,1.6.24-1.23,1.09-.74,2-1.15-2.14-1.59-6.07.88-8.42.51.63-1.89,10.25-2,12.46-2.3v-.53a23.47,23.47,0,0,1-4.9-.63c-2.56-.42-5.06.18-7.56-.08,1.83-1.26,5.57-.7,8.19-.7-.29-2-11.83-1.2-13.32-.72s-.16,1.05-2.16,1.27c-1.17.13-2.14-.56-3.34-.61a14.13,14.13,0,0,0-4.53.64c.37.74,1.25.42,1.25,1.47-.47-.37-2.55-1.23-1.88,0C136.22,11.74,140,14,139,14c-2.43,0-4.27-2-6.85-2,0,.55,1.59,1.5,1.82,2.33-1.54-.44-2.58-1.84-4.24-2,.42.84.55,2.86-.81,2.05,0,0,.65-1.67-.26-2.17-1.09-.62-4.54,1.52-5.27,1.15a8,8,0,0,1,2.76,1.41c-1.1,0-2-.76-3.18-.9-.75-.11-.55-.7-1.54-.23s-.19,1.17-.45,1.31c-.91.53-2.79.74-4.51,1.66-.68.37-2.34.33-2.24,1.51a7.55,7.55,0,0,0,2.42,0c.67,0,0,2.17-.16,2.29-.31.27-1.75.19-2.21.31-1.18.31-3.31.18-4.51.89-3.91,2.3,3.31,2.49,5.44,2.49-.42,1.76-4.79.46-4.79,1.47,0,.5,1.9,1,2.3,1.12-.32,0-.36,0-.45.24.58.47,1.7,1.44,2.56,1.13-.06-.12-.44-.46-.24-.58,1.3-.8,6.88-.19,8.42.8a9.8,9.8,0,0,1,4.14,7h.55c-2.21,4,3.1.71,4.61,4.28-1.43,0-2.77-1-4.09-.41.32,1-.86,2.58,1.15,2.63,1.75,0,2.32-1.21.28-1.53,2.9-.35,2.21.78,3,2.82-1.3-.06-2.32.16-2.29,1.44-2.89-.37.15,3.4.32,4-.06-.16.86-.4,1,0s-.94.67-.65.93c-.45-.42.52,1.62.41,1.33a4.24,4.24,0,0,1,1.33-.65c-.89,1.82,0,4.88,2,6.36.88.67,5.19,2.34,5.89,1.95,1-.52.7-2.5,1.09-3.39.24-.54-.58-.7-.26-1.33.16-.34,1-.11,1.3-.63,1.17-2.14.45-4.19,3.38-4.44-.08-1.4.06-.4.81-.87C146.77,51.47,153,43.81,153,43.8ZM90,26c1.23,1.9,6.78,1.21,8.83.87.55,1.39,3.83.53,3.7-1.27-.31.15-.62.28-.92.41l-.29-.86c1.31-.24,1.25-.58.92-1.74,1.66.45,3.05.21,1.9-1.31-.18-.24,1.74-.06,1.74-.29,0-1.6-2.94-1.08-3.68-.41-.08-.19-.16-.38-.23-.57,1.88-1.32,3.93.51,5.7-1.1l-1-.74a5.37,5.37,0,0,0,3.63,0c-.57-.44-.49-.78-1.22-1.1,2.73.66,5.94-2.32,8.47-3-.81-.81-3,0-4.38-.19,1.14-1.47,7.45,0,7.85-2.08.26-1.38-5.48-1.62-6.86-1.27-.54-.54-2.73-1.13-4.11-1.27-.54,1.92-6.73-.88-6.28,1.34-1.74-.65-5.57-1-6.88.86,1.46-.08,3.05.22,3.76,1.39-1.46-.38-3.41-1.31-4.67-1.56a5.47,5.47,0,0,0-2.79.49c-1.4.19-4.19.93-5.87,1.29l0,.53c1.43.45,1.53,1.27,3.12,1.75,2.27.7,2.35-.52,4.32-.78-3.94,2.3,2.17,1.51,3.25,1.24,2.21-.54,3.73-1.83,6.05-1.75A4.68,4.68,0,0,0,101.44,16a13.48,13.48,0,0,1,2.37.12c-1.17.87-4.88,1.15-6.57,1.26V18c1.12.47,1.78,1.3,3.12,1.27-2,.54-4.9-1.4-7.11-1.67.18,1.88,3.54,3.39,5.44,3.29-.44.51-.63.89-1,1.31C94.4,19,89.47,24,95.57,22.9l-1,.52c.71,1.17,2,.79,3-.23-1.12,3-4.43.15-6.46.41C92,24.92,91.17,25.45,90,26Zm.52-3.76c.32-.39.91-.15.75-1.21,3.68.56,2.82-1.71.54-3.15.13.09-7.45-3.72-7.27-2.61.54.11,1-.28,1.15.41a11.64,11.64,0,0,1-2.26.34c.47.32.62.79.81,1A14,14,0,0,0,82.7,17a6.11,6.11,0,0,0-.41,1.79c1.38,1.39,3.41.2,4.9,1.44-.89.06-1.8.5-2.65.63A5.82,5.82,0,0,0,90.54,22.21Zm-3,2c-.16.27-.34.54-.52.81a3.26,3.26,0,0,0,2.6-.18C89.08,23.8,88.54,24,87.54,24.18Zm.93,7c1.14-.24,13.89.81,12-2.13-1.12-1.77-6.15.13-7.69.09-3.23-.07-3.67-3.42-6.56-2.57C87.29,28.39,86.17,30.36,88.46,31.15Zm-8,.24h.81C80.9,30.52,80.9,31.21,80.45,31.39Zm1.79-1.44c.6.53,3.73,2,3.41-.06C85.38,28.23,82.77,29,82.23,29.95Zm2.84-2.48c1.28-1.34-.6-2.29-2-2.08C80.3,25.83,83.77,27.48,85.07,27.46ZM82.7,24.7a13.34,13.34,0,0,0,3.05-.4v-.58C84.47,23.54,83.09,23.44,82.7,24.7Zm.23-1.44c2.89-.71-1.93-2-2.82-1.73C80.49,22.9,81.44,23.73,82.93,23.25ZM79.7,18.94c-.42-.8-.71-1.24-1.78-1v.69A2.58,2.58,0,0,0,79.7,18.94ZM79,23.89c.84-2.89-4.85-4.27-7-3.46a6.78,6.78,0,0,1,1.85,1.51h-1C73.68,23.1,77.31,23.26,79,23.89ZM76.76,24c-.73-.28-1-.71-1.85-.46C75.25,24.53,75.82,24.21,76.76,24Zm-.54,5c1.18-.58,1.9-.13,2.14,1.21,1.54-.06,2.69-.6,2.52-2.25-.21-1.81-2-1-3.67-1.68a5,5,0,0,1,1.51,1.61,16.39,16.39,0,0,0-2.73-1c.11.49.13.94.29,1.44-1.07-.82-1.54-2.16-3.05-2.31C73.06,27.76,74.65,28.64,76.23,29Zm-3.34.46c.13.09,1.27,1.4,1.27,0C74.15,28.78,73,29.49,72.88,29.49Zm.41-4.33a3.52,3.52,0,0,0-1.67-1.49C71.68,24.82,72.25,25.47,73.29,25.16Zm30.07,20.71c.83.24,3.12,0,2.3-1.36S102.37,44.23,103.36,45.87ZM84.71,36.11c.34-.62.91-.39.88-1.32,1.61.58,2.27-.85,3.12-2-1.18-.44-3.68-1.27-4.74-.51S82.62,36.7,84.71,36.11Zm-5.08,1.79c2.66,0,3.2-2.4.63-3.57,1.95-.62.42-1.81-.68-2.17-.19-.06-1.75.79-2.66.61,1.62,1.7.37,2.77-1.43,1.78C75.58,35.72,78.56,37.35,79.63,37.91Zm-6.46-3.63c.49-1.58-1.53-1.9-2.48-1C71.6,34.09,72.24,34.67,73.18,34.27Zm-3.81-1.32c.1.1.73.83,0,0Zm-5.6-10.5h4.11C67.16,20.92,64.88,21.36,63.76,22.45ZM64.93,25c1.15,0,2.61-.14,1.61-1.27.49-.22.67,0,1-.58a5.68,5.68,0,0,0-3.81.68C63.94,24.61,64.35,24.71,64.93,25Zm-2-1c-.36-.75-.45-1.24-1.56-1C61.61,23.85,62.09,23.76,62.9,24Zm-1.15,2.88c-1.64.48-3.28,2.17-2.13,3.09s4.77,0,6.05.09c-.44.51-3.13,0-3,.95s2.26.41,2.92.28c1.41-.26,6.7-.95,6.31-2.91.15.75-3.47-2-3.16-1.91-1.69-.5-2.32.49-1.44,2,.32.13.84-.07,1,.32C68.47,29.39,62.61,27.13,61.75,26.83Zm.34-1.1c.37.16.49.77,1.4.58,0-.19,0-.39-.06-.58A2.64,2.64,0,0,1,62.09,25.74Zm-4.61,2.48-.58.69c1.27,0,1,.22,1.69-1Zm1.85-1.45a2.42,2.42,0,0,0,1.61-2.18c-3.49-.85-4.61,2.35-7.79,2.7,1.49,2.27,3.73.21,5.08-1C58.57,27.26,59,26.55,59.33,26.77Zm.8,15.06c2.5-.2,2.56,1.1,4.51,1.62s3.41-.84,5.13-1.16c1-.19,7.89.93,5.48-1,1,0,1.27-.49,1.85-.75C75,39.1,74.1,39.11,73,37.08c-.41-.79-2.21-4.61-3.67-2.79-.67.85,1.78,2.84,0,2.7-.92-.08-.86-2.56-2.6-2.65.21.36.37.78.57,1.15a9.45,9.45,0,0,1-1.83.58,9,9,0,0,0,.39-1.14,3.69,3.69,0,0,0-3.23.22c.57-2.16-1.48-1.13-2.53-.67-1.9.84-2,1.27-2.82,2.74,1.27.49,2.63-.32,3.8.58a4.91,4.91,0,0,0-2.53,1c1.28.69,5.44-.36,6.12.8.24.43-4.56.65-5.31,1.09C59.59,41.06,59.87,41.44,60.13,41.82Zm9.64,2.26c1-.28,1.69-.5,1.91-1.38a9,9,0,0,0-3.07,1.15Zm-16.1-6.23c2,.31,2.87-2.42,4.64-3.33,2.87-1.48,3.57-1.91-.11-2.67-.94-.19-5.7-1.31-6.69-.49-.55.46-.71,3.86-1.93,5.22a3.53,3.53,0,0,1,3.12,2.08ZM5.61,58.74c-1.2-1.57-2.43.21,0,0ZM25,57.48c.28-1.83,2.73.42,4,.8,1.64.49,3.2.13,4.79.65,2.81.91,4.74,3.47,7.56,4a5.3,5.3,0,0,0,.91,1.62c.15.16,1.36.71,1.51,1,1,1.46,1.54,2.89,2.39,4,1.49,2,2.06,2.19,4.19,3.46,1.53.91,3.34,2.45,3.12,4.59-1.72-2.11-3.52-5-6.46-4.67,1.38,1.66,3.42,2.24,4.3,4.32s-.26,4.22-.26,6A17.39,17.39,0,0,0,55,93.65c1.31,1.44,3.34,1.51,4.54,3.37,1,1.48,1.8,3.36,2.71,4.89.31.49-.37.73.32,1.75.42.62,1.59,1.17,2.16,1.75.39.39,2.29,2.63,2.43,3.47,1.78-1.82-5.18-8.18-5.37-10.79,1.95-.24,4.17,4.2,5.6,5.74,1.83,2,3.49,4.62,5.37,6.77-2.73,1.85,8.1,5.87,9.87,6.13.54.08,1.14-.58,2.13-.29s1.64,1.53,2.55,2.06a11,11,0,0,0,4,.93c1.57,1.1,2.37,3.26,3.2,4.06,1.2,1.1,3.93,1.95,5.63,2.69-.47-2.92,2.73-.26,2.86-1.23.26-1.91-4-.71-5.19-1.49-2.86-1.91.19-4.06-1.27-6.18-1.25-1.8-4.43-.37-6-1.06,1.36-1.49,3.39-6.23.45-6.05-2.66.18-1.36,2-3,3.33s-3.94.42-5.13-.6c-2.6-2.29-2.5-8.58-.94-10.89,2.14-3.15,5.55-.1,7.92-.84-.57-2,1.67-1.69,3.07-1.59-.13,0,3.18.62,2.76.33,1,.73,2.73,6.17,3.81,6.07,1.31-.11-1-7.33.76-9.36,1.14-1.31,3.52-1.64,4.2-3.2.58-1.33-.26-2-.63-3.63,1,.26.47-.54,1.49.52A17.58,17.58,0,0,1,107,86.75c.73-.65,2.61-.78,3.83-1.12-1.77-3.34,4.95-5.74,7.45-5.16a5.13,5.13,0,0,0-2.71,1.33c-.88,1.79,1.56.26,1.64.24a6.45,6.45,0,0,0,5-3.68c-1.66.78-2.13,2.11-4.15,1-2.69-1.46-.1-2.76-.71-3.73-1.7-2.63-6,2.14-7.77,3.28a7.6,7.6,0,0,1,1.85-2.27c-.44-.1-.89-.23-1.33-.34,2.26.5,3.55-2.32,5.48-2.87,1.28-.37,3.07.1,4.36,0,2-.19,1.82-.42,3.54-1.17s4.07-.89,3.33-2.9-3.44-.6-5-.44c.76-1.3,2.32-1,3.51-2a6.87,6.87,0,0,1-5-2.89c1.25-.76-2.3-4.59-2.94-6-1,1.14-1,3-2.66,3.34s-1.38-1.31-3.16-.84c1.12-3.86-2-5.19-5-6-3.41-.89-5.68.84-3.26,4.38h-.81c-.26.6-.08,1-.45,1.62,3.2,1.33,2.47,6.18-1.22,6.05,1.05,1.14,2,5.37-.34,5.58S97.66,68,97.87,66.3a19.29,19.29,0,0,1-6.49-2c-1-.5-2.19-.88-3.08-1.23s-1,.39-1.67,0c-.52-.31-.6-1.46-.94-1.88-1.17-1.44-1.77-.62-1.54-3A6.88,6.88,0,0,1,85.9,55c.75-.75,2.5-1,2.32-2-.13-.71-3-1.12-3.55-1.33,1.49.15,4.27,1.54,4.67-.34,1.75,1.05,2.58-.15,3.05-1.62-1.59.11-2.79-.67-4.15-1.32,1,0,7,1.49,4.56-1.1,2.66-.2.84,4-.34,4.5A3,3,0,0,0,95.28,53a9.86,9.86,0,0,1,1.78-.76c.52-.08,1.09.54,1.51.47,3.31-.57-3.2-2.86-3.75-4,1.49-.06.58,0,1.2-.8,2.27-.17,3.31-2.09,1.79-4,3.1-.53-.73-2.55-1.83-3.06,1.9-.29,3.93.61,5.94-.12-.31-.28-.62-.57-.93-.87,2.11.62,3.57,1.9,5.42,3.29.78.58,2.22,1.46,2.27,2.63.06,1.57-2.9,1.51-1.57,3.5-1.1.25-5-.62-4.85,1.33s3.05-.18,3.78-.1c2.32.29,2.5,1.9,4,3.12s3.78,1,5.52,1.95c.06-1.46-2.17-2.19-3-3.47,1.53.75,3.05,1.51,4.49,2.37a16.4,16.4,0,0,0,.63-2,36.21,36.21,0,0,1-4.43-4.38c1.05-1.54,1.46-.47,2.69.18,2,1,1.12,1.64,2.69,1.21-.11,0,1.95-1.63,1.93-1.61.67-1.24.78-.32-.11-1.44s-9.7-3.59-5.31-4.5l-1.33-.35a2.33,2.33,0,0,1,.81-.52c-.68-.28-.94-.8-1.78-1,.13-.22.26-.42.41-.64-1.62-.34-2.39-.71-3.86-1.1l.8-.52c-2.92-.07-3.1-1.73-5.13-2.37-1.56-.49-4.56,1.26-5.23.9-1-.54.26-1.09-.41-2-1.14-1.65-1-1.44-2.82-1.1-2.79.52-2.65,2.76-1.23,4.61-2.92.38-2.52-4-.42-5-2.22-.09-4.3.15-5.19,2.52-1.2,3.24,1.2,1.77,2.37,3.48-.84-.21-1.35.14-2.13.11.71,1,3.93,1.36,5.31,1.78-.84.34-1.28,6-3.52,4.85-1-.52,0-2.1,0-2.13-.89-1-1.7-.61-2-.78s-2.08-.76-2.74-1.76c-.93-1.36-1.17-5.13-4-3.16-2.66,1.85,2.86,5.18-.26,4.54.47,1.3,1.44,1.23,2.55.24,0,2-2.63,1.31-1.85,3.58-1.3-.88-1-.52-.93-1.85-1.22-.33-.23-.06-.86-1h.75a2.19,2.19,0,0,0-2.08-2.3c-.32.32-1.09,1.15-1.38,1.49.6.24,1.07.86,1.67,1.1-1.38,2.49-4.06,1.36-6.34.84-1.49-.34-1.67-.92-3.12-.32-2.13.9-1.14,1-1.44,3.18-.94-3.36-5.39-2.23-8.08-2.48.23-.13.49-.71,1.27-1-1.33-1.08-5.81-2.35-7.38-2.66-2-.37-3.88,1.65-4.61-.74-.57,1.92-1,.71-1.88.66-.29,0-.62-1.31-1.3-1.39-.91-.11-.34.58-.84.67a30.85,30.85,0,0,0-5,2.42c1.05-1.39,2.77-1.19,3.8-2.43-1.95,0-4.25,1.07-6.2,1.48-3.28.68-4.59-.67-7.94-1-2.52-.28-4.82-.8-7.43-1s-4.19-1.21-7-.87l.29-.63c-1.75-.32-4.12.8-5.68,1.27-2.14.64-2.29,1.94-3.78,2.86C5.8,43.61,4.29,42.24,6,44.49c1.07,1.42,3.39,1.61,4.17,3.46-1.22.41-2.53.34-2.6-1-1.38,1-2.94.63-4.09,2C5,49.53,5,50.76,6.24,51.08c1.48.37,3.42-.63,4.8-.76.19,4.22-4.71,1.23-5.42,5-.18,1,2.14,5.23,3.63,2.76a2.46,2.46,0,0,1,.68,2.76c1.46-.29,3.1.21,3.81-.68.45,0,1.05.13,1.67.11-1.09,4.84-6.59,4-9.17,7,3.73.91,9.93-4.79,13.14-6.59l-.86-1.27c2-.65,2.69-3.91,5-2.43-1.61.19-2.5,1.14-2,2.66a9,9,0,0,1,3.86-1.4C25.23,58,25.11,57.72,25,57.48ZM20.28,62.2v-1c-1.17.84-2.87,1.07-1.91,2.6A4.29,4.29,0,0,0,20.28,62.2Z"/><path class="cls-2" d="M74.79,45.75c0-2.71-2.5-5.1-5.6-5.19-3.1.09-5.63,2.48-5.6,5.19a6.69,6.69,0,0,0,.58,2.49h0c1.54,3.42,3.21,7.2,5,10.39,1.82-3.19,3.49-7,5-10.39h0A6.6,6.6,0,0,0,74.79,45.75Z"/><path class="cls-2" d="M95,72.75c0-2.71-2.5-5.1-5.6-5.19-3.1.09-5.63,2.48-5.6,5.19a6.69,6.69,0,0,0,.58,2.49h0c1.54,3.42,3.21,7.2,5,10.39,1.82-3.19,3.49-7,5-10.39h0A6.6,6.6,0,0,0,95,72.75Z"/><path class="cls-2" d="M207.1,57.17c0-2.71-2.5-5.1-5.6-5.19-3.1.09-5.63,2.48-5.6,5.19a6.69,6.69,0,0,0,.58,2.49h0c1.54,3.42,3.21,7.2,5,10.39,1.82-3.19,3.49-7,5-10.39h0A6.6,6.6,0,0,0,207.1,57.17Z"/><path class="cls-2" d="M207.1,75.23c0-2.71-2.5-5.1-5.6-5.19-3.1.09-5.63,2.48-5.6,5.19a6.69,6.69,0,0,0,.58,2.49h0c1.54,3.42,3.21,7.2,5,10.39,1.82-3.19,3.49-7,5-10.39h0A6.6,6.6,0,0,0,207.1,75.23Z"/><path class="cls-2" d="M218.29,70c0-2.71-2.5-5.1-5.6-5.19-3.1.09-5.63,2.48-5.6,5.19a6.69,6.69,0,0,0,.58,2.49h0c1.54,3.42,3.21,7.2,5,10.39,1.82-3.19,3.49-7,5-10.39h0A6.6,6.6,0,0,0,218.29,70Z"/><path class="cls-2" d="M229.49,61c0-2.71-2.5-5.1-5.6-5.19-3.1.09-5.63,2.48-5.6,5.19a6.69,6.69,0,0,0,.58,2.49h0c1.54,3.42,3.21,7.2,5,10.39,1.82-3.19,3.49-7,5-10.39h0A6.6,6.6,0,0,0,229.49,61Z"/><path class="cls-2" d="M235.09,88.1c0-2.71-2.5-5.1-5.6-5.19-3.1.09-5.63,2.48-5.6,5.19a6.69,6.69,0,0,0,.58,2.49h0c1.54,3.42,3.21,7.2,5,10.39,1.82-3.19,3.49-7,5-10.39h0A6.6,6.6,0,0,0,235.09,88.1Z"/><path class="cls-2" d="M344.15,149.46c0-2.71-2.5-5.1-5.6-5.19-3.1.09-5.63,2.48-5.6,5.19a6.69,6.69,0,0,0,.58,2.49h0c1.54,3.42,3.21,7.2,5,10.39,1.82-3.19,3.49-7,5-10.39h0A6.6,6.6,0,0,0,344.15,149.46Z"/><path class="cls-2" d="M321.8,128.7c0-2.71-2.5-5.1-5.6-5.19-3.1.09-5.63,2.48-5.6,5.19a6.69,6.69,0,0,0,.58,2.49h0c1.54,3.42,3.21,7.2,5,10.39,1.82-3.19,3.49-7,5-10.39h0A6.6,6.6,0,0,0,321.8,128.7Z"/><path class="cls-2" d="M307.52,124.52c0-2.71-2.5-5.1-5.6-5.19-3.1.09-5.63,2.48-5.6,5.19a6.69,6.69,0,0,0,.58,2.49h0c1.54,3.42,3.21,7.2,5,10.39,1.82-3.19,3.49-7,5-10.39h0A6.6,6.6,0,0,0,307.52,124.52Z"/><path class="cls-2" d="M321.8,119.28c0-2.71-2.5-5.1-5.6-5.19-3.1.09-5.63,2.48-5.6,5.19a6.69,6.69,0,0,0,.58,2.49h0c1.54,3.42,3.21,7.2,5,10.39,1.82-3.19,3.49-7,5-10.39h0A6.6,6.6,0,0,0,321.8,119.28Z"/><path class="cls-2" d="M307.52,110.25c0-2.71-2.5-5.1-5.6-5.19-3.1.09-5.63,2.48-5.6,5.19a6.69,6.69,0,0,0,.58,2.49h0c1.54,3.42,3.21,7.2,5,10.39,1.82-3.19,3.49-7,5-10.39h0A6.6,6.6,0,0,0,307.52,110.25Z"/><path class="cls-2" d="M321.5,106.9c0-2.71-2.5-5.1-5.6-5.19-3.1.09-5.63,2.48-5.6,5.19a6.69,6.69,0,0,0,.58,2.49h0c1.54,3.42,3.21,7.2,5,10.39,1.82-3.19,3.49-7,5-10.39h0A6.6,6.6,0,0,0,321.5,106.9Z"/><path class="cls-2" d="M307.22,97.13c0-2.71-2.5-5.1-5.6-5.19-3.1.09-5.63,2.48-5.6,5.19a6.69,6.69,0,0,0,.58,2.49h0c1.54,3.42,3.21,7.2,5,10.39,1.82-3.19,3.49-7,5-10.39h0A6.6,6.6,0,0,0,307.22,97.13Z"/><path class="cls-2" d="M337.9,82c0-2.71-2.5-5.1-5.6-5.19-3.1.09-5.63,2.48-5.6,5.19a6.69,6.69,0,0,0,.58,2.49h0c1.54,3.42,3.21,7.2,5,10.39,1.82-3.19,3.49-7,5-10.39h0A6.6,6.6,0,0,0,337.9,82Z"/><path class="cls-2" d="M327.09,72.75c0-2.71-2.5-5.1-5.6-5.19-3.1.09-5.63,2.48-5.6,5.19a6.69,6.69,0,0,0,.58,2.49h0c1.54,3.42,3.21,7.2,5,10.39,1.82-3.19,3.49-7,5-10.39h0A6.6,6.6,0,0,0,327.09,72.75Z"/><path class="cls-2" d="M132.18,119.11a5.42,5.42,0,0,0-10.85,0,7.43,7.43,0,0,0,.57,2.59h0c1.49,3.57,3.11,7.51,4.89,10.84,1.77-3.33,3.38-7.27,4.88-10.84h0A7.34,7.34,0,0,0,132.18,119.11Z"/></svg>