<svg id="Capa_1" data-name="Capa 1" xmlns="http://www.w3.org/2000/svg" width="24" height="24" viewBox="0 0 24 24"><defs><style>.cls-1{fill:#d7143a;}</style></defs><title>Social-Icon</title><path class="cls-1" d="M18.82,2.69A9,9,0,0,0,12.53.29,9.87,9.87,0,0,0,5.25,3.1,8.3,8.3,0,0,0,2.8,8.85c0,2.61,1.09,4.61,2.92,5.35a1,1,0,0,0,.37.08.82.82,0,0,0,.8-.66c.06-.23.2-.8.27-1.05a1,1,0,0,0-.26-1.07,3.4,3.4,0,0,1-.77-2.33,5.85,5.85,0,0,1,6.07-5.89c3.13,0,5.07,1.78,5.07,4.64a9.64,9.64,0,0,1-1.1,4.71,3.24,3.24,0,0,1-2.68,1.87,1.78,1.78,0,0,1-1.41-.65,1.62,1.62,0,0,1-.28-1.41c.14-.59.33-1.21.51-1.8a11.14,11.14,0,0,0,.65-2.93A2.13,2.13,0,0,0,10.8,5.37c-1.63,0-2.9,1.65-2.9,3.77a5.6,5.6,0,0,0,.4,2.11l-1.66,7c-.13.57-.94,5.06.39,5.42,1.5.4,2.84-4,3-4.47s.5-1.92.73-2.86a4.53,4.53,0,0,0,3,1.17,6.74,6.74,0,0,0,5.41-2.71,10.87,10.87,0,0,0,2-6.64A7.66,7.66,0,0,0,18.82,2.69Z"/></svg>