<svg id="Layer_1" data-name="Layer 1" xmlns="http://www.w3.org/2000/svg" width="84" height="78" viewBox="0 0 84 78"><defs><style>.cls-1{fill:#606060;}.cls-2{fill:none;}.cls-3{fill:#0fa9dd;}</style></defs><title>About</title><path class="cls-1" d="M57.3,23.31H24.18A2.79,2.79,0,0,0,21.38,26v7.17H25V26.89H56.35V66.35H33.93v3.59a5.35,5.35,0,0,1-1.39,3.59H57.36c1.48,0,2.58-1.66,2.58-3.14V26A2.67,2.67,0,0,0,57.3,23.31ZM41,71.06a1.65,1.65,0,1,1,1.53-1.65A1.59,1.59,0,0,1,41,71.06Z"/><path class="cls-1" d="M77.87,4.48H6.13A5.39,5.39,0,0,0,.75,9.86V54.69a5.39,5.39,0,0,0,5.38,5.38H7V48.42H4.34V9.86A1.79,1.79,0,0,1,6.13,8.06H77.87a1.79,1.79,0,0,1,1.79,1.79V48.42H61.73V60.07H77.87a5.39,5.39,0,0,0,5.38-5.38V9.86A5.39,5.39,0,0,0,77.87,4.48Z"/><path class="cls-2" d="M21.3,68.14a1.46,1.46,0,0,0-.82-.37l-.15,0a1.43,1.43,0,0,0-.75.22,1.56,1.56,0,0,0-.22.17,1.69,1.69,0,0,0-.56,1.27,1.64,1.64,0,0,0,1,1.55,1.44,1.44,0,0,0,.51.1,1.41,1.41,0,0,0,.46-.09,1.53,1.53,0,0,0,.75-.57,1.73,1.73,0,0,0-.17-2.19Z"/><polygon class="cls-2" points="20.48 38.55 19.58 38.55 12.41 38.55 12.41 48.41 12.41 56.49 12.41 58.28 12.41 60.07 12.41 65.45 19.58 65.45 20.48 65.45 21.38 65.45 24.96 65.45 24.96 38.55 21.38 38.55 20.48 38.55"/><path class="cls-3" d="M54,29.59H27.1v6.92h3.13c.54,0,.17.14.6.38.92.49.66,1.43.66,2.58V55l0,1.54,0,1.54v5.38H54Z"/><path class="cls-1" d="M25,65.45H12.41V38.55H25V35H12.41a3.72,3.72,0,0,0-1.79.46,3.37,3.37,0,0,0-1.79,3V69.94a3.6,3.6,0,0,0,3.59,3.59H28.62a3.45,3.45,0,0,0,2.31-.9,3.6,3.6,0,0,0,1.2-2.69V66.35H25ZM21.54,70.4a1.53,1.53,0,0,1-.75.57,1.41,1.41,0,0,1-.46.09,1.44,1.44,0,0,1-.51-.1,1.64,1.64,0,0,1-1-1.55,1.69,1.69,0,0,1,.56-1.27,1.56,1.56,0,0,1,.22-.17,1.43,1.43,0,0,1,.75-.22l.15,0a1.46,1.46,0,0,1,.82.37l.08.07a1.73,1.73,0,0,1,.17,2.19Z"/><path class="cls-1" d="M32.14,64.56V38.41a3.36,3.36,0,0,0-1.79-3A3.62,3.62,0,0,0,28.62,35H25v3.59h3.59v26.9H25v.9h7.17V64.56Z"/><path class="cls-1" d="M63.52,68.14c-.9-2.69-1.79-.9-1.79-.9v5.38H69.8v-.9C69.8,70.83,64.42,70.83,63.52,68.14Z"/></svg>